<svg width="100" height="100" viewBox="0 0 100 100" fill="none" xmlns="http://www.w3.org/2000/svg">
<path d="M79.1667 16.6667V20.8333H70.8333V12.5H29.1667V20.8333H20.8333V12.5H12.5V87.5H20.8333V79.1667H29.1667V87.5H70.8333V79.1667H79.1667V87.5H87.5V12.5H79.1667V16.6667ZM20.8333 29.1667H29.1667V37.5H20.8333V29.1667ZM20.8333 45.8333H29.1667V54.1667H20.8333V45.8333ZM20.8333 70.8333V62.5H29.1667V70.8333H20.8333ZM70.8333 70.8333V62.5H79.1667V70.8333H70.8333ZM79.1667 54.1667H70.8333V45.8333H79.1667V54.1667ZM70.8333 37.5V29.1667H79.1667V37.5H70.8333Z" fill="#FACC15"/>
<g clip-path="url(#clip0_20_5)">
<path d="M74.8419 49.5022C74.6856 49.2817 71.262 44.5284 64.8503 42.3994C64.248 42.1994 63.8881 41.576 64.0164 40.9544C65.3838 34.3296 62.9653 28.9801 62.8517 28.734C62.6985 28.4031 62.3487 28.2062 61.9913 28.2373C61.7217 28.262 55.8857 28.8413 50.8341 33.3315C50.3599 33.7529 49.6404 33.7529 49.1663 33.3315C44.1147 28.8413 38.2786 28.262 38.0091 28.2373C37.6478 28.2044 37.3015 28.4031 37.1487 28.734C37.035 28.98 34.6165 34.3296 35.984 40.9543C36.1123 41.576 35.7525 42.1993 35.1501 42.3993C28.7382 44.5284 25.3145 49.2816 25.1583 49.5022C24.9474 49.8007 24.9474 50.1998 25.1583 50.4981C25.3146 50.7186 28.7382 55.4719 35.1499 57.6008C35.7522 57.8008 36.1121 58.4242 35.9838 59.0459C34.6164 65.6706 37.0349 71.0202 37.1485 71.2662C37.3013 71.5971 37.6491 71.7898 38.0089 71.7629C38.2785 71.7382 44.1145 71.1589 49.1661 66.6687C49.6403 66.2472 50.3598 66.2472 50.8339 66.6687C55.8855 71.1589 61.7216 71.7382 61.9911 71.7629C62.0172 71.765 62.0433 71.7662 62.0695 71.7662C62.4029 71.7662 62.7097 71.5729 62.8516 71.2661C62.9653 71.0201 65.3838 65.6705 64.0163 59.0458C63.888 58.4241 64.2478 57.8007 64.8502 57.6007C71.2618 55.4718 74.6855 50.7186 74.8418 50.498C75.0528 50.1996 75.0528 49.8005 74.8419 49.5022Z" fill="white"/>
<path d="M64.8504 57.6007C64.863 57.5965 64.8746 57.5915 64.8871 57.5873L51.7199 49.9966L64.8119 42.3781C64.2354 42.1634 63.8912 41.5612 64.0165 40.9544C64.0249 40.9138 64.0293 40.8746 64.0374 40.8342L50.8621 48.5012V33.308C50.8528 33.3163 50.8432 33.3232 50.8339 33.3315C50.3597 33.753 49.6403 33.753 49.1661 33.3315C49.1568 33.3232 49.1472 33.3163 49.1379 33.308V48.5082L35.978 40.9218C35.9802 40.9329 35.9814 40.9435 35.9836 40.9544C36.1119 41.5761 35.7522 42.1994 35.1497 42.3994C35.1371 42.4036 35.1255 42.4087 35.1129 42.4129L48.28 50.0036L35.1881 57.622C35.7646 57.8368 36.1088 58.4389 35.9835 59.0458C35.9751 59.0864 35.9707 59.1256 35.9626 59.1662L49.1379 51.4992V66.6923C49.1472 66.684 49.1568 66.677 49.1661 66.6687C49.6403 66.2471 50.3597 66.2471 50.8339 66.6687C50.8432 66.677 50.8528 66.684 50.8621 66.6923V51.492L64.0221 59.0786C64.0198 59.0674 64.0186 59.0568 64.0164 59.0457C63.8881 58.4242 64.2478 57.8007 64.8504 57.6007Z" fill="#BABABA"/>
<path d="M65.5173 49.1381H51.4933L58.5054 36.9928C58.7432 36.5803 58.6022 36.0533 58.1897 35.815C57.7754 35.5758 57.2497 35.7182 57.0118 36.1307L50 48.2757L42.9881 36.1307C42.7489 35.7182 42.2221 35.5759 41.8102 35.815C41.3977 36.0533 41.2567 36.5803 41.4945 36.9928L48.5066 49.1381H34.4826C34.0065 49.1381 33.6205 49.5241 33.6205 50.0002C33.6205 50.4762 34.0065 50.8623 34.4826 50.8623H48.5066L41.4945 63.0075C41.2567 63.42 41.3977 63.9471 41.8102 64.1853C41.9463 64.2637 42.0944 64.3007 42.2404 64.3007C42.5385 64.3007 42.828 64.1462 42.988 63.8696L49.9999 51.7246L57.0117 63.8695C57.1717 64.146 57.4613 64.3006 57.7594 64.3006C57.9054 64.3006 58.054 64.2635 58.1896 64.1852C58.6021 63.947 58.7431 63.4199 58.5053 63.0074L51.4933 50.8622H65.5173C65.9934 50.8622 66.3794 50.4761 66.3794 50.0001C66.3794 49.5241 65.9934 49.1381 65.5173 49.1381Z" fill="#6F6F6F"/>
<path d="M59.4829 50.0001C59.4829 50.772 57.6865 51.2977 57.4962 52.0095C57.2994 52.7461 58.5864 54.0982 58.2131 54.7431C57.8347 55.3972 56.017 54.9556 55.4861 55.4865C54.9552 56.0173 55.3967 57.835 54.7426 58.2134C54.0978 58.5865 52.7458 57.2995 52.0094 57.4963C51.2974 57.6867 50.7719 59.483 50 59.483C49.2282 59.483 48.7025 57.6866 47.9907 57.4963C47.254 57.2995 45.902 58.5865 45.2571 58.2132C44.603 57.8348 45.0446 56.0171 44.5137 55.4862C43.9828 54.9553 42.1652 55.3968 41.7867 54.7427C41.4137 54.0979 42.7007 52.7459 42.5038 52.0095C42.3135 51.2977 40.5172 50.7721 40.5172 50.0002C40.5172 49.2284 42.3136 48.7027 42.5038 47.9909C42.7007 47.2542 41.4137 45.9022 41.7869 45.2573C42.1654 44.6032 43.983 45.0448 44.514 44.5139C45.0449 43.983 44.6034 42.1654 45.2575 41.7869C45.9023 41.4139 47.2542 42.7009 47.9907 42.504C48.7027 42.3136 49.2282 40.5173 50 40.5173C50.7719 40.5173 51.2976 42.3137 52.0094 42.5039C52.746 42.7008 54.0981 41.4138 54.743 41.787C55.3971 42.1655 54.9555 43.9831 55.4864 44.5141C56.0172 45.0449 57.8349 44.6034 58.2133 45.2575C58.5864 45.9024 57.2994 47.2543 57.4962 47.9908C57.6865 48.7027 59.4829 49.2283 59.4829 50.0001Z" fill="#555555"/>
<path d="M50.4699 45.4756L52.1478 44.5828C52.8008 44.2354 53.5919 44.6922 53.6175 45.4314L53.6833 47.331C53.6948 47.6635 53.8709 47.9686 54.1531 48.1449L55.7652 49.1517C56.3925 49.5434 56.3925 50.457 55.7652 50.8487L54.1531 51.8555C53.8709 52.0318 53.6947 52.3369 53.6833 52.6694L53.6175 54.569C53.5918 55.3082 52.8008 55.7649 52.1478 55.4175L50.4699 54.5248C50.1762 54.3685 49.8239 54.3685 49.5302 54.5248L47.8522 55.4175C47.1993 55.765 46.4082 55.3082 46.3826 54.569L46.3168 52.6694C46.3053 52.3369 46.1292 52.0318 45.847 51.8555L44.2348 50.8487C43.6076 50.457 43.6076 49.5434 44.2348 49.1517L45.847 48.1449C46.1292 47.9686 46.3054 47.6635 46.3168 47.331L46.3826 45.4314C46.4083 44.6922 47.1993 44.2355 47.8522 44.5828L49.5302 45.4756C49.824 45.632 50.1762 45.632 50.4699 45.4756Z" fill="#333333"/>
<path d="M50.0001 51.7243C50.9523 51.7243 51.7243 50.9524 51.7243 50.0002C51.7243 49.0479 50.9523 48.276 50.0001 48.276C49.0479 48.276 48.276 49.0479 48.276 50.0002C48.276 50.9524 49.0479 51.7243 50.0001 51.7243Z" fill="#111111"/>
</g>
<defs>
<clipPath id="clip0_20_5">
<rect width="50" height="50" fill="white" transform="translate(25 25)"/>
</clipPath>
</defs>
</svg>
