<svg width="431" height="85" viewBox="0 0 431 85" fill="none" xmlns="http://www.w3.org/2000/svg">
<rect width="431" height="85" fill="#1A1A1A"/>
<mask id="mask0_28_2" style="mask-type:alpha" maskUnits="userSpaceOnUse" x="0" y="0" width="431" height="85">
<rect width="431" height="85" fill="#1A1A1A"/>
</mask>
<g mask="url(#mask0_28_2)">
<path fill-rule="evenodd" clip-rule="evenodd" d="M80.3897 -44.0177C78.3706 -41.6132 78.2071 -39.1478 79.1649 -25.5371C79.701 -17.9141 79.9702 -11.0349 79.7626 -10.2512C79.5551 -9.4669 78.5093 -8.60934 77.4385 -8.34548C76.367 -8.08089 74.9148 -7.35237 74.2115 -6.72606C72.9148 -5.57057 57.7179 2.17061 56.7469 2.17061C56.4565 2.17061 56.0106 1.07384 55.7561 -0.26722C55.5016 -1.60756 53.8646 -5.60392 52.1191 -9.14721C48.5988 -16.2911 43.9387 -21.2805 41.1525 -20.8884C39.6475 -20.6767 39.5566 -20.3005 39.6079 -14.502C39.638 -11.1131 40.1587 -5.73077 40.7645 -2.54123C41.5925 1.81106 41.7187 4.97596 41.2698 10.1445C40.1096 23.5072 37.4268 31.1796 30.1397 41.9754C25.3095 49.1316 22.1477 56.2994 19.5823 65.9079C18.0194 71.7622 17.7194 74.5502 17.6622 83.7216C17.605 92.9184 17.8588 95.6012 19.308 101.119C21.3168 108.765 23.9167 114.699 28.8063 122.801C35.96 134.654 42.4279 146.153 44.9339 151.475C47.0359 155.938 47.5669 158.029 47.839 162.917L48.1719 168.897H39.0528C32.7125 168.897 29.5346 169.185 28.6252 169.842C27.0828 170.956 26.455 174.006 25.1973 186.484L24.2644 195.733L20.7323 198.95L17.1995 202.166L17.5926 206.373C18.2658 213.567 19.2339 238.818 18.8606 239.44C18.6655 239.765 18.7213 241.163 18.9838 242.546C19.4158 244.822 19.9688 245.296 24.7968 247.53L30.1331 250L41.0769 249.338C47.0967 248.975 58.1272 248.325 65.5896 247.893C98.1279 246.015 97.7758 246.057 100.708 243.714C103.285 241.656 103.366 241.44 103.573 236.099C103.778 230.834 103.647 230.326 100.456 224.049L97.126 217.494V205.011V192.529L90.7087 181.115C86.576 173.766 83.6915 169.43 82.6068 168.938C81.6805 168.516 79.3417 168.172 77.4099 168.172H73.8976L73.7817 165.257C73.6842 162.793 74.177 161.721 76.9618 158.342C78.7747 156.142 80.2577 153.987 80.2577 153.552C80.2577 153.117 77.1884 149.786 73.4378 146.15C69.6871 142.514 64.8672 137.092 62.7271 134.102C58.012 127.515 52.4653 116.087 49.3996 106.647C47.4158 100.538 47.165 98.8567 47.3857 93.1452C47.7077 84.7923 49.8602 79.9427 55.8903 73.9826C60.62 69.3077 66.221 66.2146 74.0237 63.9688C78.8334 62.585 98.1044 57.5057 104.979 55.8101C108.575 54.9228 109.369 54.0305 108.007 52.4046C106.565 50.6815 99.0571 47.3506 93.3284 45.8928C90.5767 45.1918 88.3251 44.3306 88.3251 43.9798C88.3251 43.1092 98.4938 25.3209 99.8968 23.7363C101.393 22.0473 104.984 22.122 110.162 23.9501C115.444 25.8153 127.119 28.2502 128.418 27.758C130.248 27.0636 129.402 24.6105 124.898 17.5537C117.726 6.31702 115.304 1.43919 115.84 -0.689114C116.361 -2.75724 120.451 -9.1001 123.511 -12.5861C127.639 -17.2871 131.768 -24.5999 131.312 -26.3983C130.398 -29.9945 126.967 -29.4567 114.361 -23.743C109.924 -21.7314 105.324 -20.0801 104.139 -20.0729C101.37 -20.0562 98.2826 -23.4545 92.3589 -33.0413C85.5331 -44.0873 82.6603 -46.7223 80.3897 -44.0177ZM75.4861 11.4993C79.9731 12.2351 80.4792 13.9118 80.8583 29.2963C81.1532 41.231 81.0703 42.3647 79.8448 43.2505C78.8708 43.9544 75.4553 44.2147 67.2045 44.2147C56.7242 44.2147 55.9372 44.1219 56.4271 42.9461C58.6648 37.5782 59.1459 33.3136 58.807 21.853L58.4557 10.0024L65.5067 10.5106C69.3842 10.7904 73.8748 11.2355 75.4861 11.4993Z" fill="#BA863B"/>
</g>
</svg>
