<svg width="982" height="297" viewBox="0 0 982 297" fill="none" xmlns="http://www.w3.org/2000/svg">
<path d="M214.968 138.848C215.096 138.848 215.16 139.04 215.16 139.424C215.16 139.808 215.096 140 214.968 140C212.792 140 211.064 139.968 209.784 139.904L202.68 139.808L195.48 139.904C194.264 139.968 192.6 140 190.488 140C190.296 140 190.2 139.808 190.2 139.424C190.2 139.04 190.296 138.848 190.488 138.848C193.176 138.848 195 138.528 195.96 137.888C196.92 137.248 197.4 135.904 197.4 133.856L197.304 132.224L195.288 92.96L175.512 139.328C175.384 139.584 175.128 139.712 174.744 139.712C174.36 139.712 174.104 139.584 173.976 139.328L149.688 93.152L148.92 127.808C148.856 131.264 149.528 133.984 150.936 135.968C152.408 137.888 154.456 138.848 157.08 138.848C157.272 138.848 157.368 139.04 157.368 139.424C157.368 139.808 157.272 140 157.08 140C155.352 140 154.008 139.968 153.048 139.904L147.768 139.808L141.72 139.904C140.696 139.968 139.32 140 137.592 140C137.4 140 137.304 139.808 137.304 139.424C137.304 139.04 137.4 138.848 137.592 138.848C140.216 138.848 142.296 137.856 143.832 135.872C145.368 133.888 146.168 131.2 146.232 127.808L147.096 88.064L147 87.968C145.72 85.6 144.376 83.872 142.968 82.784C141.624 81.696 140.056 81.152 138.264 81.152C138.072 81.152 137.976 80.96 137.976 80.576C137.976 80.192 138.072 80 138.264 80L142.776 80.096C143.672 80.16 144.824 80.192 146.232 80.192L151.32 80.096C151.896 80.032 152.632 80 153.528 80C154.36 80 155 80.288 155.448 80.864C155.896 81.44 156.728 82.816 157.944 84.992L178.872 124.256L197.112 82.4C197.496 81.504 197.88 80.896 198.264 80.576C198.712 80.192 199.288 80 199.992 80C200.568 80 201.208 80.032 201.912 80.096C202.68 80.16 203.544 80.192 204.504 80.192L210.168 80.096C211.064 80.032 212.344 80 214.008 80C214.2 80 214.296 80.192 214.296 80.576C214.296 80.96 214.2 81.152 214.008 81.152C211 81.152 208.824 81.76 207.48 82.976C206.136 84.192 205.528 86.08 205.656 88.64L207.96 132.224C208.088 134.208 208.312 135.648 208.632 136.544C209.016 137.44 209.656 138.048 210.552 138.368C211.512 138.688 212.984 138.848 214.968 138.848ZM282.305 138.848C282.625 138.848 282.785 139.04 282.785 139.424C282.785 139.808 282.625 140 282.305 140C281.025 140 279.041 139.936 276.353 139.808C273.537 139.68 271.521 139.616 270.305 139.616C268.705 139.616 266.753 139.68 264.449 139.808C262.273 139.936 260.545 140 259.265 140C259.009 140 258.881 139.808 258.881 139.424C258.881 139.04 259.009 138.848 259.265 138.848C260.929 138.848 262.113 138.688 262.817 138.368C263.585 137.984 263.969 137.344 263.969 136.448C263.969 135.36 263.329 133.536 262.049 130.976L255.521 118.016H231.905L228.161 126.368C227.329 128.224 226.913 129.952 226.913 131.552C226.913 133.856 227.713 135.648 229.313 136.928C230.977 138.208 233.185 138.848 235.937 138.848C236.257 138.848 236.417 139.04 236.417 139.424C236.417 139.808 236.257 140 235.937 140C234.785 140 233.121 139.936 230.945 139.808C228.513 139.68 226.401 139.616 224.609 139.616C222.881 139.616 220.801 139.68 218.369 139.808C216.193 139.936 214.433 140 213.089 140C212.833 140 212.705 139.808 212.705 139.424C212.705 139.04 212.833 138.848 213.089 138.848C214.881 138.848 216.385 138.496 217.601 137.792C218.817 137.024 220.033 135.712 221.249 133.856C222.465 131.936 223.905 129.12 225.569 125.408L246.401 79.616C246.529 79.424 246.817 79.328 247.265 79.328C247.777 79.328 248.065 79.424 248.129 79.616L272.129 126.848C274.369 131.392 276.225 134.528 277.697 136.256C279.169 137.984 280.705 138.848 282.305 138.848ZM233.153 115.328H254.081L243.041 93.44L233.153 115.328ZM342.095 138.848C342.287 138.848 342.383 139.04 342.383 139.424C342.383 139.808 342.287 140 342.095 140H331.343C330.319 140 329.455 140.032 328.751 140.096C328.047 140.16 327.471 140.192 327.023 140.192C325.999 140.192 325.103 139.968 324.335 139.52C323.631 139.008 322.735 138.112 321.647 136.832C320.623 135.552 318.767 133.088 316.079 129.44C315.759 128.992 315.375 128.512 314.927 128C314.543 127.424 314.095 126.784 313.583 126.08L301.007 109.184L298.895 111.296V132.224C298.895 134.208 299.055 135.648 299.375 136.544C299.695 137.44 300.303 138.048 301.199 138.368C302.159 138.688 303.663 138.848 305.711 138.848C305.967 138.848 306.095 139.04 306.095 139.424C306.095 139.808 305.967 140 305.711 140C303.599 140 301.935 139.968 300.719 139.904L293.519 139.808L286.415 139.904C285.135 139.968 283.407 140 281.231 140C281.103 140 281.039 139.808 281.039 139.424C281.039 139.04 281.103 138.848 281.231 138.848C283.279 138.848 284.783 138.688 285.743 138.368C286.703 138.048 287.343 137.44 287.663 136.544C288.047 135.584 288.239 134.144 288.239 132.224V87.776C288.239 85.856 288.047 84.448 287.663 83.552C287.343 82.656 286.703 82.048 285.743 81.728C284.847 81.344 283.407 81.152 281.423 81.152C281.231 81.152 281.135 80.96 281.135 80.576C281.135 80.192 281.231 80 281.423 80L286.511 80.096C289.455 80.224 291.791 80.288 293.519 80.288C295.439 80.288 297.871 80.224 300.815 80.096L305.711 80C305.903 80 305.999 80.192 305.999 80.576C305.999 80.96 305.903 81.152 305.711 81.152C303.727 81.152 302.255 81.344 301.295 81.728C300.399 82.112 299.759 82.784 299.375 83.744C299.055 84.64 298.895 86.048 298.895 87.968V108.32L316.943 89.888C318.799 88.032 319.727 86.336 319.727 84.8C319.727 83.648 319.215 82.752 318.191 82.112C317.167 81.472 315.727 81.152 313.871 81.152C313.679 81.152 313.583 80.96 313.583 80.576C313.583 80.192 313.679 80 313.871 80L318.383 80.096C321.199 80.224 323.823 80.288 326.255 80.288C328.879 80.288 331.599 80.224 334.415 80.096L338.735 80C338.927 80 339.023 80.192 339.023 80.576C339.023 80.96 338.927 81.152 338.735 81.152C335.791 81.152 332.559 82.016 329.039 83.744C325.519 85.408 322.319 87.648 319.439 90.464L308.591 101.504L322.799 120.704C326.959 126.656 330.063 130.88 332.111 133.376C334.223 135.808 335.919 137.344 337.199 137.984C338.479 138.56 340.111 138.848 342.095 138.848ZM406.249 138.848C406.569 138.848 406.73 139.04 406.73 139.424C406.73 139.808 406.569 140 406.249 140C404.969 140 402.985 139.936 400.297 139.808C397.481 139.68 395.465 139.616 394.249 139.616C392.649 139.616 390.697 139.68 388.393 139.808C386.217 139.936 384.489 140 383.209 140C382.953 140 382.825 139.808 382.825 139.424C382.825 139.04 382.953 138.848 383.209 138.848C384.873 138.848 386.057 138.688 386.761 138.368C387.529 137.984 387.913 137.344 387.913 136.448C387.913 135.36 387.273 133.536 385.993 130.976L379.465 118.016H355.849L352.105 126.368C351.273 128.224 350.857 129.952 350.857 131.552C350.857 133.856 351.657 135.648 353.257 136.928C354.921 138.208 357.129 138.848 359.881 138.848C360.201 138.848 360.361 139.04 360.361 139.424C360.361 139.808 360.201 140 359.881 140C358.729 140 357.065 139.936 354.889 139.808C352.457 139.68 350.345 139.616 348.553 139.616C346.825 139.616 344.745 139.68 342.313 139.808C340.137 139.936 338.377 140 337.033 140C336.777 140 336.649 139.808 336.649 139.424C336.649 139.04 336.777 138.848 337.033 138.848C338.825 138.848 340.329 138.496 341.545 137.792C342.761 137.024 343.977 135.712 345.193 133.856C346.409 131.936 347.849 129.12 349.513 125.408L370.345 79.616C370.473 79.424 370.761 79.328 371.209 79.328C371.721 79.328 372.009 79.424 372.073 79.616L396.073 126.848C398.313 131.392 400.169 134.528 401.641 136.256C403.113 137.984 404.649 138.848 406.249 138.848ZM357.097 115.328H378.025L366.985 93.44L357.097 115.328ZM416.858 82.208C409.242 82.208 403.77 87.168 400.442 97.088C400.378 97.28 400.186 97.376 399.866 97.376C399.546 97.312 399.386 97.184 399.386 96.992C399.642 94.432 399.93 91.136 400.25 87.104C400.57 83.008 400.73 79.936 400.73 77.888C400.73 77.568 400.89 77.408 401.21 77.408C401.594 77.408 401.786 77.568 401.786 77.888C401.786 79.296 403.61 80 407.258 80C412.762 80.192 419.194 80.288 426.554 80.288C430.33 80.288 434.33 80.224 438.554 80.096L445.082 80C447.514 80 449.274 79.84 450.362 79.52C451.514 79.2 452.25 78.56 452.57 77.6C452.634 77.344 452.826 77.216 453.146 77.216C453.53 77.216 453.722 77.344 453.722 77.6C453.53 79.52 453.306 82.592 453.05 86.816C452.858 91.04 452.762 94.432 452.762 96.992C452.762 97.184 452.602 97.28 452.282 97.28C451.962 97.28 451.77 97.184 451.706 96.992C450.746 92.064 448.954 88.384 446.33 85.952C443.706 83.456 440.474 82.208 436.634 82.208C434.778 82.208 433.53 82.624 432.89 83.456C432.314 84.224 432.026 85.728 432.026 87.968V132.224C432.026 134.208 432.218 135.648 432.602 136.544C432.986 137.44 433.722 138.048 434.81 138.368C435.898 138.688 437.626 138.848 439.994 138.848C440.186 138.848 440.282 139.04 440.282 139.424C440.282 139.808 440.186 140 439.994 140C437.69 140 435.866 139.968 434.522 139.904L426.554 139.808L418.778 139.904C417.434 139.968 415.578 140 413.21 140C413.018 140 412.922 139.808 412.922 139.424C412.922 139.04 413.018 138.848 413.21 138.848C415.514 138.848 417.21 138.688 418.298 138.368C419.45 138.048 420.218 137.44 420.602 136.544C421.05 135.584 421.274 134.144 421.274 132.224V87.776C421.274 85.6 420.986 84.128 420.41 83.36C419.834 82.592 418.65 82.208 416.858 82.208ZM486.842 141.152C480.89 141.152 475.578 139.776 470.906 137.024C466.298 134.208 462.714 130.432 460.154 125.696C457.658 120.896 456.41 115.68 456.41 110.048C456.41 103.456 458.074 97.824 461.402 93.152C464.73 88.416 468.986 84.864 474.17 82.496C479.418 80.128 484.762 78.944 490.202 78.944C496.282 78.944 501.626 80.384 506.234 83.264C510.842 86.08 514.362 89.824 516.794 94.496C519.29 99.168 520.538 104.128 520.538 109.376C520.538 115.2 519.002 120.544 515.93 125.408C512.858 130.272 508.73 134.112 503.546 136.928C498.426 139.744 492.858 141.152 486.842 141.152ZM490.01 138.752C493.594 138.752 496.794 137.728 499.61 135.68C502.49 133.568 504.73 130.528 506.33 126.56C507.93 122.528 508.73 117.728 508.73 112.16C508.73 106.272 507.834 101.024 506.042 96.416C504.25 91.744 501.658 88.096 498.266 85.472C494.874 82.848 490.906 81.536 486.362 81.536C480.538 81.536 476.058 83.744 472.922 88.16C469.786 92.512 468.218 98.624 468.218 106.496C468.218 112.704 469.146 118.272 471.002 123.2C472.922 128.064 475.514 131.872 478.778 134.624C482.106 137.376 485.85 138.752 490.01 138.752ZM539.866 82.208C532.25 82.208 526.778 87.168 523.45 97.088C523.386 97.28 523.194 97.376 522.874 97.376C522.554 97.312 522.394 97.184 522.394 96.992C522.65 94.432 522.938 91.136 523.258 87.104C523.578 83.008 523.738 79.936 523.738 77.888C523.738 77.568 523.898 77.408 524.218 77.408C524.602 77.408 524.794 77.568 524.794 77.888C524.794 79.296 526.618 80 530.266 80C535.77 80.192 542.202 80.288 549.562 80.288C553.338 80.288 557.338 80.224 561.562 80.096L568.09 80C570.522 80 572.282 79.84 573.37 79.52C574.522 79.2 575.258 78.56 575.578 77.6C575.642 77.344 575.834 77.216 576.154 77.216C576.538 77.216 576.73 77.344 576.73 77.6C576.538 79.52 576.314 82.592 576.058 86.816C575.866 91.04 575.77 94.432 575.77 96.992C575.77 97.184 575.61 97.28 575.29 97.28C574.97 97.28 574.778 97.184 574.714 96.992C573.754 92.064 571.962 88.384 569.338 85.952C566.714 83.456 563.482 82.208 559.642 82.208C557.786 82.208 556.538 82.624 555.898 83.456C555.322 84.224 555.034 85.728 555.034 87.968V132.224C555.034 134.208 555.226 135.648 555.61 136.544C555.994 137.44 556.73 138.048 557.818 138.368C558.906 138.688 560.634 138.848 563.002 138.848C563.194 138.848 563.29 139.04 563.29 139.424C563.29 139.808 563.194 140 563.002 140C560.698 140 558.874 139.968 557.53 139.904L549.562 139.808L541.786 139.904C540.442 139.968 538.586 140 536.218 140C536.026 140 535.93 139.808 535.93 139.424C535.93 139.04 536.026 138.848 536.218 138.848C538.522 138.848 540.218 138.688 541.306 138.368C542.458 138.048 543.226 137.44 543.61 136.544C544.058 135.584 544.282 134.144 544.282 132.224V87.776C544.282 85.6 543.994 84.128 543.418 83.36C542.842 82.592 541.658 82.208 539.866 82.208ZM609.85 141.152C603.898 141.152 598.586 139.776 593.914 137.024C589.306 134.208 585.722 130.432 583.162 125.696C580.666 120.896 579.418 115.68 579.418 110.048C579.418 103.456 581.082 97.824 584.41 93.152C587.738 88.416 591.994 84.864 597.178 82.496C602.426 80.128 607.77 78.944 613.21 78.944C619.29 78.944 624.634 80.384 629.242 83.264C633.85 86.08 637.37 89.824 639.802 94.496C642.298 99.168 643.546 104.128 643.546 109.376C643.546 115.2 642.01 120.544 638.938 125.408C635.866 130.272 631.738 134.112 626.554 136.928C621.434 139.744 615.866 141.152 609.85 141.152ZM613.018 138.752C616.602 138.752 619.802 137.728 622.618 135.68C625.498 133.568 627.738 130.528 629.338 126.56C630.938 122.528 631.738 117.728 631.738 112.16C631.738 106.272 630.842 101.024 629.05 96.416C627.258 91.744 624.666 88.096 621.274 85.472C617.882 82.848 613.914 81.536 609.37 81.536C603.546 81.536 599.066 83.744 595.93 88.16C592.794 92.512 591.226 98.624 591.226 106.496C591.226 112.704 592.154 118.272 594.01 123.2C595.93 128.064 598.522 131.872 601.786 134.624C605.114 137.376 608.858 138.752 613.018 138.752ZM714.646 138.848C714.838 138.848 714.934 139.04 714.934 139.424C714.934 139.808 714.838 140 714.646 140C712.406 140 710.614 139.968 709.27 139.904L701.878 139.808L693.238 139.904C692.086 139.968 690.518 140 688.534 140C688.342 140 688.246 139.808 688.246 139.424C688.246 139.04 688.342 138.848 688.534 138.848C690.902 138.848 692.63 138.688 693.718 138.368C694.806 138.048 695.542 137.44 695.926 136.544C696.31 135.648 696.502 134.208 696.502 132.224V110.144H665.494V132.224C665.494 134.144 665.686 135.584 666.07 136.544C666.454 137.44 667.19 138.048 668.278 138.368C669.366 138.688 671.094 138.848 673.462 138.848C673.59 138.848 673.654 139.04 673.654 139.424C673.654 139.808 673.59 140 673.462 140C671.222 140 669.43 139.968 668.086 139.904L659.734 139.808L652.534 139.904C651.254 139.968 649.494 140 647.254 140C647.126 140 647.062 139.808 647.062 139.424C647.062 139.04 647.126 138.848 647.254 138.848C649.494 138.848 651.126 138.688 652.15 138.368C653.174 138.048 653.878 137.44 654.262 136.544C654.646 135.584 654.838 134.144 654.838 132.224V87.776C654.838 85.856 654.646 84.448 654.262 83.552C653.878 82.656 653.174 82.048 652.15 81.728C651.19 81.344 649.622 81.152 647.446 81.152C647.254 81.152 647.158 80.96 647.158 80.576C647.158 80.192 647.254 80 647.446 80L652.63 80.096C655.574 80.224 657.942 80.288 659.734 80.288C662.166 80.288 664.982 80.224 668.182 80.096L673.462 80C673.59 80 673.654 80.192 673.654 80.576C673.654 80.96 673.59 81.152 673.462 81.152C671.158 81.152 669.462 81.344 668.374 81.728C667.286 82.112 666.518 82.784 666.07 83.744C665.686 84.64 665.494 86.048 665.494 87.968V107.456H696.502V87.968C696.502 86.048 696.31 84.64 695.926 83.744C695.542 82.784 694.806 82.112 693.718 81.728C692.63 81.344 690.902 81.152 688.534 81.152C688.342 81.152 688.246 80.96 688.246 80.576C688.246 80.192 688.342 80 688.534 80L693.238 80.096C696.438 80.224 699.318 80.288 701.878 80.288C703.606 80.288 706.07 80.224 709.27 80.096L714.646 80C714.838 80 714.934 80.192 714.934 80.576C714.934 80.96 714.838 81.152 714.646 81.152C712.47 81.152 710.838 81.344 709.75 81.728C708.726 82.048 708.022 82.656 707.638 83.552C707.318 84.448 707.158 85.856 707.158 87.776V132.224C707.158 134.144 707.318 135.584 707.638 136.544C708.022 137.44 708.726 138.048 709.75 138.368C710.774 138.688 712.406 138.848 714.646 138.848ZM782.678 138.848C782.998 138.848 783.158 139.04 783.158 139.424C783.158 139.808 782.998 140 782.678 140C781.398 140 779.414 139.936 776.726 139.808C773.91 139.68 771.894 139.616 770.678 139.616C769.078 139.616 767.126 139.68 764.822 139.808C762.646 139.936 760.918 140 759.638 140C759.382 140 759.254 139.808 759.254 139.424C759.254 139.04 759.382 138.848 759.638 138.848C761.302 138.848 762.486 138.688 763.19 138.368C763.958 137.984 764.342 137.344 764.342 136.448C764.342 135.36 763.702 133.536 762.422 130.976L755.894 118.016H732.278L728.534 126.368C727.702 128.224 727.286 129.952 727.286 131.552C727.286 133.856 728.086 135.648 729.686 136.928C731.35 138.208 733.558 138.848 736.31 138.848C736.63 138.848 736.79 139.04 736.79 139.424C736.79 139.808 736.63 140 736.31 140C735.158 140 733.494 139.936 731.318 139.808C728.886 139.68 726.774 139.616 724.982 139.616C723.254 139.616 721.174 139.68 718.742 139.808C716.566 139.936 714.806 140 713.462 140C713.206 140 713.078 139.808 713.078 139.424C713.078 139.04 713.206 138.848 713.462 138.848C715.254 138.848 716.758 138.496 717.974 137.792C719.19 137.024 720.406 135.712 721.622 133.856C722.838 131.936 724.278 129.12 725.942 125.408L746.774 79.616C746.902 79.424 747.19 79.328 747.638 79.328C748.15 79.328 748.438 79.424 748.502 79.616L772.502 126.848C774.742 131.392 776.598 134.528 778.07 136.256C779.542 137.984 781.078 138.848 782.678 138.848ZM733.526 115.328H754.454L743.414 93.44L733.526 115.328ZM848.133 80C848.261 80 848.325 80.192 848.325 80.576C848.325 80.96 848.261 81.152 848.133 81.152C845.573 81.152 843.557 82.176 842.085 84.224C840.613 86.208 839.877 88.896 839.877 92.288V141.44C839.877 141.632 839.717 141.76 839.397 141.824C839.141 141.888 838.949 141.856 838.821 141.728L793.797 90.464V127.808C793.797 131.2 794.501 133.888 795.909 135.872C797.317 137.856 799.269 138.848 801.765 138.848C801.893 138.848 801.957 139.04 801.957 139.424C801.957 139.808 801.893 140 801.765 140C799.973 140 798.597 139.968 797.637 139.904L792.453 139.808L786.501 139.904C785.413 139.968 783.845 140 781.797 140C781.605 140 781.509 139.808 781.509 139.424C781.509 139.04 781.605 138.848 781.797 138.848C784.613 138.848 786.821 137.856 788.421 135.872C790.085 133.888 790.917 131.2 790.917 127.808V87.2C788.805 84.896 786.981 83.328 785.445 82.496C783.973 81.6 782.437 81.152 780.837 81.152C780.709 81.152 780.645 80.96 780.645 80.576C780.645 80.192 780.709 80 780.837 80L784.869 80.096C785.701 80.16 786.917 80.192 788.517 80.192L795.813 80.096C796.709 80.032 797.797 80 799.077 80C799.589 80 799.973 80.128 800.229 80.384C800.485 80.64 800.933 81.184 801.573 82.016C802.661 83.488 803.429 84.48 803.877 84.992L837.093 123.296V92.288C837.093 88.832 836.389 86.112 834.981 84.128C833.573 82.144 831.621 81.152 829.125 81.152C828.997 81.152 828.933 80.96 828.933 80.576C828.933 80.192 828.997 80 829.125 80L833.253 80.096C835.301 80.224 837.029 80.288 838.437 80.288C839.717 80.288 841.509 80.224 843.813 80.096L848.133 80ZM914.311 138.848C914.631 138.848 914.791 139.04 914.791 139.424C914.791 139.808 914.631 140 914.311 140C913.031 140 911.047 139.936 908.359 139.808C905.543 139.68 903.527 139.616 902.311 139.616C900.711 139.616 898.759 139.68 896.455 139.808C894.279 139.936 892.551 140 891.271 140C891.015 140 890.887 139.808 890.887 139.424C890.887 139.04 891.015 138.848 891.271 138.848C892.935 138.848 894.119 138.688 894.823 138.368C895.591 137.984 895.975 137.344 895.975 136.448C895.975 135.36 895.335 133.536 894.055 130.976L887.527 118.016H863.911L860.167 126.368C859.335 128.224 858.919 129.952 858.919 131.552C858.919 133.856 859.719 135.648 861.319 136.928C862.983 138.208 865.191 138.848 867.943 138.848C868.263 138.848 868.423 139.04 868.423 139.424C868.423 139.808 868.263 140 867.943 140C866.791 140 865.127 139.936 862.951 139.808C860.519 139.68 858.407 139.616 856.615 139.616C854.887 139.616 852.807 139.68 850.375 139.808C848.199 139.936 846.439 140 845.095 140C844.839 140 844.711 139.808 844.711 139.424C844.711 139.04 844.839 138.848 845.095 138.848C846.887 138.848 848.391 138.496 849.607 137.792C850.823 137.024 852.039 135.712 853.255 133.856C854.471 131.936 855.911 129.12 857.575 125.408L878.407 79.616C878.535 79.424 878.823 79.328 879.271 79.328C879.783 79.328 880.071 79.424 880.135 79.616L904.135 126.848C906.375 131.392 908.231 134.528 909.703 136.256C911.175 137.984 912.711 138.848 914.311 138.848ZM865.159 115.328H886.087L875.047 93.44L865.159 115.328ZM979.765 80C979.893 80 979.957 80.192 979.957 80.576C979.957 80.96 979.893 81.152 979.765 81.152C977.205 81.152 975.189 82.176 973.717 84.224C972.245 86.208 971.509 88.896 971.509 92.288V141.44C971.509 141.632 971.349 141.76 971.029 141.824C970.773 141.888 970.581 141.856 970.453 141.728L925.429 90.464V127.808C925.429 131.2 926.133 133.888 927.541 135.872C928.949 137.856 930.901 138.848 933.397 138.848C933.525 138.848 933.589 139.04 933.589 139.424C933.589 139.808 933.525 140 933.397 140C931.605 140 930.229 139.968 929.269 139.904L924.085 139.808L918.133 139.904C917.045 139.968 915.477 140 913.429 140C913.237 140 913.141 139.808 913.141 139.424C913.141 139.04 913.237 138.848 913.429 138.848C916.245 138.848 918.453 137.856 920.053 135.872C921.717 133.888 922.549 131.2 922.549 127.808V87.2C920.437 84.896 918.613 83.328 917.077 82.496C915.605 81.6 914.069 81.152 912.469 81.152C912.341 81.152 912.277 80.96 912.277 80.576C912.277 80.192 912.341 80 912.469 80L916.501 80.096C917.333 80.16 918.549 80.192 920.149 80.192L927.445 80.096C928.341 80.032 929.429 80 930.709 80C931.221 80 931.605 80.128 931.861 80.384C932.117 80.64 932.565 81.184 933.205 82.016C934.293 83.488 935.061 84.48 935.509 84.992L968.725 123.296V92.288C968.725 88.832 968.021 86.112 966.613 84.128C965.205 82.144 963.253 81.152 960.757 81.152C960.629 81.152 960.565 80.96 960.565 80.576C960.565 80.192 960.629 80 960.757 80L964.885 80.096C966.933 80.224 968.661 80.288 970.069 80.288C971.349 80.288 973.141 80.224 975.445 80.096L979.765 80ZM196.056 233.176C196.056 233.347 195.8 233.475 195.288 233.56C194.861 233.645 194.605 233.56 194.52 233.304C193.155 228.355 190.851 224.685 187.608 222.296C184.365 219.907 180.099 218.712 174.808 218.712H170.968C168.408 218.712 166.531 219.267 165.336 220.376C164.141 221.485 163.544 223.192 163.544 225.496V253.144H172.76C177.709 253.144 181.464 252.291 184.024 250.584C186.669 248.792 187.992 246.36 187.992 243.288C187.992 243.117 188.248 243.032 188.76 243.032C189.272 243.032 189.528 243.117 189.528 243.288L189.4 254.936C189.4 257.667 189.443 259.715 189.528 261.08L189.656 267.864C189.656 268.12 189.4 268.248 188.888 268.248C188.376 268.248 188.12 268.12 188.12 267.864C188.12 264.451 186.755 261.763 184.024 259.8C181.379 257.752 177.581 256.728 172.632 256.728H163.544V284.12C163.544 286.765 163.885 288.728 164.568 290.008C165.251 291.288 166.531 292.184 168.408 292.696C170.285 293.208 173.229 293.464 177.24 293.464C177.411 293.464 177.496 293.72 177.496 294.232C177.496 294.744 177.411 295 177.24 295C173.741 295 171.011 294.957 169.048 294.872L155.992 294.744L146.392 294.872C144.685 294.957 142.339 295 139.352 295C139.096 295 138.968 294.744 138.968 294.232C138.968 293.72 139.096 293.464 139.352 293.464C142.339 293.464 144.515 293.251 145.88 292.824C147.245 292.397 148.141 291.587 148.568 290.392C149.08 289.112 149.336 287.192 149.336 284.632V225.368C149.336 222.808 149.123 220.931 148.696 219.736C148.269 218.541 147.416 217.731 146.136 217.304C144.856 216.792 142.893 216.536 140.248 216.536C139.992 216.536 139.864 216.28 139.864 215.768C139.864 215.256 139.992 215 140.248 215H194.52C195.373 215 195.8 215.384 195.8 216.152L196.056 233.176ZM230.931 284.632C230.931 287.277 231.144 289.197 231.571 290.392C231.998 291.587 232.808 292.397 234.003 292.824C235.283 293.251 237.288 293.464 240.019 293.464C240.275 293.464 240.403 293.72 240.403 294.232C240.403 294.744 240.275 295 240.019 295C237.203 295 234.984 294.957 233.363 294.872L223.635 294.744L214.163 294.872C212.456 294.957 210.152 295 207.251 295C207.08 295 206.995 294.744 206.995 294.232C206.995 293.72 207.08 293.464 207.251 293.464C209.982 293.464 211.987 293.251 213.267 292.824C214.547 292.397 215.4 291.587 215.827 290.392C216.339 289.112 216.595 287.192 216.595 284.632V225.368C216.595 222.808 216.339 220.931 215.827 219.736C215.4 218.541 214.547 217.731 213.267 217.304C211.987 216.792 209.982 216.536 207.251 216.536C207.08 216.536 206.995 216.28 206.995 215.768C206.995 215.256 207.08 215 207.251 215L214.163 215.128C218.088 215.299 221.246 215.384 223.635 215.384C226.28 215.384 229.566 215.299 233.491 215.128L240.019 215C240.275 215 240.403 215.256 240.403 215.768C240.403 216.28 240.275 216.536 240.019 216.536C237.374 216.536 235.411 216.792 234.131 217.304C232.851 217.816 231.998 218.712 231.571 219.992C231.144 221.187 230.931 223.064 230.931 225.624V284.632ZM272.889 284.12C272.889 286.339 273.06 287.96 273.401 288.984C273.742 289.923 274.382 290.563 275.321 290.904C276.345 291.245 277.966 291.416 280.185 291.416H284.537C291.193 291.416 296.953 289.667 301.817 286.168C306.681 282.584 309.924 277.763 311.545 271.704C311.545 271.533 311.716 271.448 312.057 271.448C312.228 271.448 312.398 271.533 312.569 271.704C312.825 271.789 312.953 271.875 312.953 271.96C312.185 280.408 311.801 287.448 311.801 293.08C311.801 293.763 311.63 294.275 311.289 294.616C311.033 294.872 310.564 295 309.881 295H249.465C249.294 295 249.209 294.744 249.209 294.232C249.209 293.72 249.294 293.464 249.465 293.464C252.196 293.464 254.158 293.251 255.353 292.824C256.633 292.397 257.486 291.587 257.913 290.392C258.425 289.112 258.681 287.192 258.681 284.632V225.368C258.681 222.808 258.425 220.931 257.913 219.736C257.486 218.541 256.633 217.731 255.353 217.304C254.073 216.792 252.11 216.536 249.465 216.536C249.294 216.536 249.209 216.28 249.209 215.768C249.209 215.256 249.294 215 249.465 215L255.993 215.128C259.918 215.299 263.161 215.384 265.721 215.384C268.281 215.384 271.524 215.299 275.449 215.128L281.977 215C282.233 215 282.361 215.256 282.361 215.768C282.361 216.28 282.233 216.536 281.977 216.536C279.332 216.536 277.369 216.792 276.089 217.304C274.809 217.731 273.956 218.584 273.529 219.864C273.102 221.059 272.889 222.936 272.889 225.496V284.12ZM421.999 293.464C422.17 293.464 422.255 293.72 422.255 294.232C422.255 294.744 422.17 295 421.999 295C419.098 295 416.794 294.957 415.087 294.872L405.615 294.744L396.015 294.872C394.394 294.957 392.175 295 389.359 295C389.103 295 388.975 294.744 388.975 294.232C388.975 293.72 389.103 293.464 389.359 293.464C392.943 293.464 395.375 293.037 396.655 292.184C397.935 291.331 398.575 289.539 398.575 286.808L398.447 284.632L395.759 232.28L369.391 294.104C369.22 294.445 368.879 294.616 368.367 294.616C367.855 294.616 367.514 294.445 367.343 294.104L334.959 232.536L333.935 278.744C333.85 283.352 334.746 286.979 336.623 289.624C338.586 292.184 341.316 293.464 344.815 293.464C345.071 293.464 345.199 293.72 345.199 294.232C345.199 294.744 345.071 295 344.815 295C342.511 295 340.719 294.957 339.439 294.872L332.399 294.744L324.335 294.872C322.97 294.957 321.135 295 318.831 295C318.575 295 318.447 294.744 318.447 294.232C318.447 293.72 318.575 293.464 318.831 293.464C322.33 293.464 325.103 292.141 327.151 289.496C329.199 286.851 330.266 283.267 330.351 278.744L331.503 225.752L331.375 225.624C329.668 222.467 327.876 220.163 325.999 218.712C324.207 217.261 322.116 216.536 319.727 216.536C319.471 216.536 319.343 216.28 319.343 215.768C319.343 215.256 319.471 215 319.727 215L325.743 215.128C326.938 215.213 328.474 215.256 330.351 215.256L337.135 215.128C337.903 215.043 338.884 215 340.079 215C341.188 215 342.042 215.384 342.639 216.152C343.236 216.92 344.346 218.755 345.967 221.656L373.871 274.008L398.191 218.2C398.703 217.005 399.215 216.195 399.727 215.768C400.324 215.256 401.092 215 402.031 215C402.799 215 403.652 215.043 404.591 215.128C405.615 215.213 406.767 215.256 408.047 215.256L415.599 215.128C416.794 215.043 418.5 215 420.719 215C420.975 215 421.103 215.256 421.103 215.768C421.103 216.28 420.975 216.536 420.719 216.536C416.708 216.536 413.807 217.347 412.015 218.968C410.223 220.589 409.412 223.107 409.583 226.52L412.655 284.632C412.826 287.277 413.124 289.197 413.551 290.392C414.063 291.587 414.916 292.397 416.111 292.824C417.391 293.251 419.354 293.464 421.999 293.464ZM546.901 293.464C547.328 293.464 547.541 293.72 547.541 294.232C547.541 294.744 547.328 295 546.901 295C545.194 295 542.549 294.915 538.965 294.744C535.21 294.573 532.522 294.488 530.901 294.488C528.768 294.488 526.165 294.573 523.093 294.744C520.192 294.915 517.888 295 516.181 295C515.84 295 515.669 294.744 515.669 294.232C515.669 293.72 515.84 293.464 516.181 293.464C518.4 293.464 519.978 293.251 520.917 292.824C521.941 292.312 522.453 291.459 522.453 290.264C522.453 288.813 521.6 286.381 519.893 282.968L511.189 265.688H479.701L474.709 276.824C473.6 279.299 473.045 281.603 473.045 283.736C473.045 286.808 474.112 289.197 476.245 290.904C478.464 292.611 481.408 293.464 485.077 293.464C485.504 293.464 485.717 293.72 485.717 294.232C485.717 294.744 485.504 295 485.077 295C483.541 295 481.322 294.915 478.421 294.744C475.178 294.573 472.362 294.488 469.973 294.488C467.669 294.488 464.896 294.573 461.653 294.744C458.752 294.915 456.405 295 454.613 295C454.272 295 454.101 294.744 454.101 294.232C454.101 293.72 454.272 293.464 454.613 293.464C457.002 293.464 459.008 292.995 460.629 292.056C462.25 291.032 463.872 289.283 465.493 286.808C467.114 284.248 469.034 280.493 471.253 275.544L499.029 214.488C499.2 214.232 499.584 214.104 500.181 214.104C500.864 214.104 501.248 214.232 501.333 214.488L533.333 277.464C536.32 283.523 538.794 287.704 540.757 290.008C542.72 292.312 544.768 293.464 546.901 293.464ZM481.365 262.104H509.269L494.549 232.92L481.365 262.104ZM652.876 215C653.047 215 653.132 215.256 653.132 215.768C653.132 216.28 653.047 216.536 652.876 216.536C649.719 216.536 646.732 217.901 643.916 220.632C641.185 223.277 638.924 226.947 637.132 231.64L613.452 294.872C613.367 295.213 612.897 295.384 612.044 295.384C611.191 295.384 610.721 295.213 610.636 294.872L594.252 260.184L581.324 294.872C581.239 295.213 580.769 295.384 579.916 295.384C579.063 295.384 578.593 295.213 578.508 294.872L545.868 225.624C544.588 222.893 543.521 220.931 542.668 219.736C541.9 218.541 541.004 217.731 539.98 217.304C539.041 216.792 537.761 216.536 536.14 216.536C535.884 216.536 535.756 216.28 535.756 215.768C535.756 215.256 535.884 215 536.14 215C537.42 215 538.316 215.043 538.828 215.128C540.535 215.299 542.753 215.384 545.484 215.384C551.201 215.384 556.023 215.299 559.948 215.128C561.057 215.043 562.423 215 564.044 215C564.3 215 564.428 215.256 564.428 215.768C564.428 216.28 564.3 216.536 564.044 216.536C561.911 216.536 560.375 216.749 559.436 217.176C558.583 217.603 558.156 218.371 558.156 219.48C558.156 220.931 559.137 223.747 561.1 227.928L584.14 276.824L592.204 255.704L577.996 225.624C576.545 222.552 575.18 220.291 573.9 218.84C572.62 217.304 571.255 216.536 569.804 216.536C569.548 216.536 569.42 216.28 569.42 215.768C569.42 215.256 569.548 215 569.804 215C570.657 215 571.639 215.085 572.748 215.256C573.943 215.341 575.607 215.384 577.74 215.384C582.604 215.384 586.657 215.299 589.9 215.128C590.753 215.043 591.863 215 593.228 215C593.484 215 593.612 215.256 593.612 215.768C593.612 216.28 593.484 216.536 593.228 216.536C592.033 216.536 591.137 216.707 590.54 217.048C590.028 217.304 589.772 217.816 589.772 218.584C589.772 220.035 590.924 223.149 593.228 227.928L598.86 239.832L602.06 231.256C603.937 226.392 604.876 222.723 604.876 220.248C604.876 217.773 603.809 216.536 601.676 216.536C601.42 216.536 601.292 216.28 601.292 215.768C601.292 215.256 601.42 215 601.676 215C602.359 215 603.084 215.085 603.852 215.256C604.705 215.341 606.753 215.384 609.996 215.384C611.447 215.384 613.196 215.299 615.244 215.128L619.98 215C620.151 215 620.236 215.256 620.236 215.768C620.236 216.28 620.151 216.536 619.98 216.536C614.263 216.536 609.527 221.571 605.772 231.64L601.036 244.312L616.396 276.696L632.908 232.536C633.932 229.805 634.444 227.331 634.444 225.112C634.444 222.467 633.761 220.376 632.396 218.84C631.116 217.304 629.367 216.536 627.148 216.536C626.892 216.536 626.764 216.28 626.764 215.768C626.764 215.256 626.892 215 627.148 215L633.036 215.128C636.108 215.299 638.924 215.384 641.484 215.384C643.191 215.384 645.153 215.299 647.372 215.128L652.876 215ZM731.276 293.464C731.703 293.464 731.916 293.72 731.916 294.232C731.916 294.744 731.703 295 731.276 295C729.569 295 726.924 294.915 723.34 294.744C719.585 294.573 716.897 294.488 715.276 294.488C713.143 294.488 710.54 294.573 707.468 294.744C704.567 294.915 702.263 295 700.556 295C700.215 295 700.044 294.744 700.044 294.232C700.044 293.72 700.215 293.464 700.556 293.464C702.775 293.464 704.353 293.251 705.292 292.824C706.316 292.312 706.828 291.459 706.828 290.264C706.828 288.813 705.975 286.381 704.268 282.968L695.564 265.688H664.076L659.084 276.824C657.975 279.299 657.42 281.603 657.42 283.736C657.42 286.808 658.487 289.197 660.62 290.904C662.839 292.611 665.783 293.464 669.452 293.464C669.879 293.464 670.092 293.72 670.092 294.232C670.092 294.744 669.879 295 669.452 295C667.916 295 665.697 294.915 662.796 294.744C659.553 294.573 656.737 294.488 654.348 294.488C652.044 294.488 649.271 294.573 646.028 294.744C643.127 294.915 640.78 295 638.988 295C638.647 295 638.476 294.744 638.476 294.232C638.476 293.72 638.647 293.464 638.988 293.464C641.377 293.464 643.383 292.995 645.004 292.056C646.625 291.032 648.247 289.283 649.868 286.808C651.489 284.248 653.409 280.493 655.628 275.544L683.404 214.488C683.575 214.232 683.959 214.104 684.556 214.104C685.239 214.104 685.623 214.232 685.708 214.488L717.708 277.464C720.695 283.523 723.169 287.704 725.132 290.008C727.095 292.312 729.143 293.464 731.276 293.464ZM665.74 262.104H693.644L678.924 232.92L665.74 262.104ZM821.749 293.464C821.92 293.464 822.005 293.72 822.005 294.232C822.005 294.744 821.92 295 821.749 295H798.965C797.088 295 793.589 291.629 788.469 284.888C783.349 278.061 777.162 268.547 769.909 256.344C769.226 256.429 768.245 256.472 766.965 256.472C763.637 256.472 761.29 256.429 759.925 256.344V284.632C759.925 287.277 760.138 289.197 760.565 290.392C760.992 291.587 761.802 292.397 762.997 292.824C764.277 293.251 766.282 293.464 769.013 293.464C769.184 293.464 769.269 293.72 769.269 294.232C769.269 294.744 769.184 295 769.013 295C766.197 295 763.978 294.957 762.357 294.872L752.629 294.744L743.285 294.872C741.578 294.957 739.274 295 736.373 295C736.117 295 735.989 294.744 735.989 294.232C735.989 293.72 736.117 293.464 736.373 293.464C739.104 293.464 741.066 293.251 742.261 292.824C743.541 292.397 744.394 291.587 744.821 290.392C745.333 289.112 745.589 287.192 745.589 284.632V225.368C745.589 222.808 745.376 220.931 744.949 219.736C744.522 218.541 743.669 217.731 742.389 217.304C741.109 216.792 739.146 216.536 736.501 216.536C736.33 216.536 736.245 216.28 736.245 215.768C736.245 215.256 736.33 215 736.501 215L743.285 215.128C747.21 215.299 750.325 215.384 752.629 215.384C755.53 215.384 758.56 215.256 761.717 215C762.826 214.915 764.192 214.829 765.813 214.744C767.52 214.659 769.397 214.616 771.445 214.616C779.21 214.616 785.226 216.067 789.493 218.968C793.76 221.784 795.893 225.752 795.893 230.872C795.893 235.565 794.613 239.832 792.053 243.672C789.493 247.427 786.08 250.456 781.813 252.76C788.64 263 794.357 271.021 798.965 276.824C803.573 282.627 807.669 286.851 811.253 289.496C814.837 292.141 818.336 293.464 821.749 293.464ZM759.925 252.76C761.973 253.101 764.448 253.272 767.349 253.272C772.298 253.272 775.84 251.907 777.973 249.176C780.192 246.36 781.301 241.88 781.301 235.736C781.301 228.739 780.277 223.917 778.229 221.272C776.181 218.627 773.237 217.304 769.397 217.304C765.984 217.304 763.552 217.944 762.101 219.224C760.65 220.504 759.925 222.637 759.925 225.624V252.76ZM862.228 295.512C859.497 295.512 856.255 295.384 852.5 295.128C851.135 295.043 849.428 294.957 847.38 294.872C845.417 294.787 843.199 294.744 840.724 294.744L831.252 294.872C829.545 294.957 827.241 295 824.34 295C824.169 295 824.084 294.744 824.084 294.232C824.084 293.72 824.169 293.464 824.34 293.464C827.071 293.464 829.076 293.251 830.356 292.824C831.636 292.397 832.489 291.587 832.916 290.392C833.428 289.112 833.684 287.192 833.684 284.632V225.368C833.684 222.808 833.428 220.931 832.916 219.736C832.489 218.541 831.636 217.731 830.356 217.304C829.161 216.792 827.241 216.536 824.596 216.536C824.34 216.536 824.212 216.28 824.212 215.768C824.212 215.256 824.34 215 824.596 215L831.38 215.128C835.305 215.299 838.42 215.384 840.724 215.384C844.223 215.384 847.807 215.256 851.476 215C855.913 214.829 858.9 214.744 860.436 214.744C869.055 214.744 876.692 216.451 883.348 219.864C890.089 223.277 895.295 227.928 898.964 233.816C902.633 239.704 904.468 246.317 904.468 253.656C904.468 261.933 902.548 269.272 898.708 275.672C894.953 281.987 889.833 286.893 883.348 290.392C876.948 293.805 869.908 295.512 862.228 295.512ZM860.948 292.568C866.409 292.568 871.231 291.203 875.412 288.472C879.593 285.656 882.836 281.517 885.14 276.056C887.529 270.595 888.724 264.067 888.724 256.472C888.724 249.219 887.615 242.648 885.396 236.76C883.177 230.787 880.02 226.093 875.924 222.68C871.828 219.267 867.092 217.56 861.716 217.56C856.425 217.56 852.799 218.072 850.836 219.096C848.873 220.12 847.892 222.296 847.892 225.624V283.224C847.892 286.637 848.788 289.069 850.58 290.52C852.372 291.885 855.828 292.568 860.948 292.568ZM933.022 227.928C933.022 231 933.79 233.731 935.326 236.12C936.947 238.509 938.91 240.6 941.214 242.392C943.518 244.184 946.633 246.36 950.558 248.92C954.825 251.651 958.238 254.04 960.798 256.088C963.358 258.136 965.534 260.653 967.326 263.64C969.118 266.541 970.014 269.912 970.014 273.752C970.014 278.189 968.819 282.157 966.43 285.656C964.041 289.069 960.713 291.757 956.446 293.72C952.265 295.597 947.571 296.536 942.366 296.536C938.526 296.536 934.515 296.024 930.334 295C926.153 293.891 923.337 292.696 921.886 291.416C921.459 291.075 921.118 290.776 920.862 290.52C920.691 290.179 920.606 289.667 920.606 288.984L920.222 268.632V268.504C920.222 268.163 920.435 267.992 920.862 267.992C921.289 267.907 921.545 268.035 921.63 268.376C924.19 273.581 926.409 277.805 928.286 281.048C930.249 284.291 932.681 287.149 935.582 289.624C938.569 292.099 941.939 293.336 945.694 293.336C949.107 293.336 951.923 292.44 954.142 290.648C956.361 288.771 957.47 285.613 957.47 281.176C957.47 277.421 956.617 274.136 954.91 271.32C953.289 268.504 951.283 266.115 948.894 264.152C946.505 262.189 943.219 259.843 939.038 257.112C934.942 254.467 931.742 252.205 929.438 250.328C927.219 248.451 925.299 246.189 923.678 243.544C922.057 240.899 921.246 237.784 921.246 234.2C921.246 229.677 922.526 225.88 925.086 222.808C927.731 219.651 931.102 217.347 935.198 215.896C939.294 214.36 943.603 213.592 948.126 213.592C951.113 213.592 954.142 213.891 957.214 214.488C960.286 215 962.761 215.64 964.638 216.408C965.406 216.749 965.918 217.133 966.174 217.56C966.43 217.901 966.558 218.371 966.558 218.968V237.784C966.558 238.04 966.345 238.253 965.918 238.424C965.491 238.509 965.235 238.424 965.15 238.168L964.126 235.736C961.993 230.36 959.475 225.795 956.574 222.04C953.758 218.285 949.79 216.408 944.67 216.408C941.257 216.408 938.441 217.389 936.222 219.352C934.089 221.315 933.022 224.173 933.022 227.928Z" fill="white"/>
<path fill-rule="evenodd" clip-rule="evenodd" d="M62.4572 0.982319C60.4615 3.3868 60.2999 5.85218 61.2466 19.4629C61.7765 27.0859 62.0425 33.9651 61.8374 34.7488C61.6322 35.5331 60.5985 36.3907 59.5402 36.6545C58.4811 36.9191 57.0458 37.6476 56.3506 38.2739C55.069 39.4294 40.0484 47.1706 39.0886 47.1706C38.8016 47.1706 38.3608 46.0738 38.1093 44.7328C37.8578 43.3924 36.2398 39.3961 34.5145 35.8528C31.035 28.7089 26.429 23.7195 23.6751 24.1116C22.1877 24.3233 22.0978 24.6995 22.1485 30.498C22.1782 33.8869 22.6929 39.2692 23.2917 42.4588C24.1101 46.8111 24.2348 49.976 23.7911 55.1445C22.6443 68.5072 19.9927 76.1796 12.7901 86.9754C8.01592 94.1316 4.89088 101.299 2.35519 110.908C0.81043 116.762 0.51395 119.55 0.457408 128.722C0.400866 137.918 0.651683 140.601 2.08408 146.119C4.06958 153.765 6.63933 159.699 11.4722 167.801C18.5429 179.654 24.9357 191.153 27.4127 196.475C29.4903 200.938 30.0151 203.029 30.284 207.917L30.6132 213.897H21.5998C15.333 213.897 12.192 214.185 11.2932 214.842C9.76872 215.956 9.14821 219.006 7.90501 231.484L6.98294 240.733L3.49183 243.95L0 247.166L0.388542 251.373C1.054 258.567 2.01087 283.818 1.64189 284.44C1.44907 284.765 1.50416 286.163 1.76367 287.546C2.19064 289.822 2.73721 290.296 7.50921 292.53L12.7836 295L23.6005 294.338C29.5504 293.975 40.4529 293.325 47.8287 292.893C79.9895 291.015 79.6416 291.057 82.5397 288.714C85.087 286.656 85.1668 286.44 85.3719 281.099C85.5741 275.834 85.4444 275.326 82.2911 269.049L78.9993 262.494V250.011V237.529L72.6565 226.115C68.5717 218.766 65.7207 214.43 64.6485 213.938C63.733 213.516 61.4213 213.172 59.5119 213.172H56.0404L55.9258 210.257C55.8294 207.793 56.3166 206.721 59.069 203.342C60.861 201.142 62.3267 198.987 62.3267 198.552C62.3267 198.117 59.293 194.786 55.5859 191.15C51.8787 187.514 47.1147 182.092 44.9995 179.102C40.3391 172.515 34.8567 161.087 31.8266 151.647C29.8658 145.538 29.6179 143.857 29.8361 138.145C30.1543 129.792 32.2819 124.943 38.242 118.983C42.9168 114.308 48.4529 111.215 56.1651 108.969C60.9189 107.585 79.9664 102.506 86.7615 100.81C90.3157 99.9228 91.1001 99.0305 89.7539 97.4046C88.3288 95.6815 80.908 92.3506 75.2458 90.8928C72.526 90.1918 70.3006 89.3306 70.3006 88.9798C70.3006 88.1092 80.3513 70.3209 81.738 68.7363C83.2168 67.0473 86.7666 67.122 91.8844 68.9501C97.1044 70.8153 108.645 73.2502 109.928 72.758C111.737 72.0636 110.901 69.6105 106.449 62.5537C99.3603 51.317 96.9666 46.4392 97.4965 44.3109C98.0112 42.2428 102.053 35.8999 105.078 32.4139C109.158 27.7129 113.24 20.4001 112.788 18.6017C111.886 15.0055 108.494 15.5433 96.0344 21.257C91.6488 23.2686 87.1022 24.9199 85.9308 24.9271C83.1943 24.9438 80.1425 21.5455 74.2875 11.9587C67.5409 0.912731 64.7015 -1.72227 62.4572 0.982319ZM57.6105 56.4993C62.0454 57.2351 62.5456 58.9118 62.9204 74.2963C63.2118 86.231 63.1299 87.3647 61.9186 88.2505C60.9559 88.9544 57.5801 89.2147 49.425 89.2147C39.0662 89.2147 38.2884 89.1219 38.7726 87.9461C40.9843 82.5782 41.4598 78.3136 41.1249 66.853L40.7777 55.0024L47.7468 55.5106C51.5794 55.7904 56.0179 56.2355 57.6105 56.4993Z" fill="#BA863B"/>
<path d="M62 213L14 214C10.5542 214.157 9.67332 216.062 9 221L7 240.5L0 247L1.5 284.5C1.5 284.5 1.41408 286.008 1.5 287C1.61303 288.305 2.5 290 2.5 290L13 295.5L79.5 291C81.8384 289.891 82.9784 288.363 85 286.5L85.5 281V275.804L82.5 269L79 262.304V237.5L72.5 225.5L69 219.5L65 214L62 213Z" fill="#4F0005"/>
<path d="M70.2535 30.9662L69.5694 40.1663L61.6027 44.8207C60.1736 45.6542 60.3214 47.7715 61.8554 48.3987L70.391 51.8922L72.3487 60.908C72.7036 62.5372 74.7698 63.0302 75.8261 61.7744L81.7908 54.7342L90.9721 55.6551C92.6019 55.8188 93.7481 54.0347 92.8717 52.6162L88.017 44.7709L91.7302 36.3285C92.398 34.8118 91.0334 33.186 89.4264 33.5792L80.4625 35.7652L73.5794 29.6224C72.349 28.5289 70.3777 29.3051 70.2535 30.9662Z" fill="#EAAC52"/>
</svg>
