<svg width="355" height="100" viewBox="0 0 355 100" fill="none" xmlns="http://www.w3.org/2000/svg">
<path d="M79.1667 16.6667V20.8333H70.8333V12.5H29.1667V20.8333H20.8333V12.5H12.5V87.5H20.8333V79.1667H29.1667V87.5H70.8333V79.1667H79.1667V87.5H87.5V12.5H79.1667V16.6667ZM20.8333 29.1667H29.1667V37.5H20.8333V29.1667ZM20.8333 45.8333H29.1667V54.1667H20.8333V45.8333ZM20.8333 70.8333V62.5H29.1667V70.8333H20.8333ZM70.8333 70.8333V62.5H79.1667V70.8333H70.8333ZM79.1667 54.1667H70.8333V45.8333H79.1667V54.1667ZM70.8333 37.5V29.1667H79.1667V37.5H70.8333Z" fill="#FACC15"/>
<g clip-path="url(#clip0_20_24)">
<path d="M74.8419 49.5022C74.6856 49.2817 71.262 44.5284 64.8503 42.3994C64.248 42.1994 63.8881 41.576 64.0164 40.9544C65.3838 34.3296 62.9653 28.9801 62.8517 28.734C62.6985 28.4031 62.3487 28.2062 61.9913 28.2373C61.7217 28.262 55.8857 28.8413 50.8341 33.3315C50.3599 33.7529 49.6404 33.7529 49.1663 33.3315C44.1147 28.8413 38.2786 28.262 38.0091 28.2373C37.6478 28.2044 37.3015 28.4031 37.1487 28.734C37.035 28.98 34.6165 34.3296 35.984 40.9543C36.1123 41.576 35.7525 42.1993 35.1501 42.3993C28.7382 44.5284 25.3145 49.2816 25.1583 49.5022C24.9474 49.8007 24.9474 50.1998 25.1583 50.4981C25.3146 50.7186 28.7382 55.4719 35.1499 57.6008C35.7522 57.8008 36.1121 58.4242 35.9838 59.0459C34.6164 65.6706 37.0349 71.0202 37.1485 71.2662C37.3013 71.5971 37.6491 71.7898 38.0089 71.7629C38.2785 71.7382 44.1145 71.1589 49.1661 66.6687C49.6403 66.2472 50.3598 66.2472 50.8339 66.6687C55.8855 71.1589 61.7216 71.7382 61.9911 71.7629C62.0172 71.765 62.0433 71.7662 62.0695 71.7662C62.4029 71.7662 62.7097 71.5729 62.8516 71.2661C62.9653 71.0201 65.3838 65.6705 64.0163 59.0458C63.888 58.4241 64.2478 57.8007 64.8502 57.6007C71.2618 55.4718 74.6855 50.7186 74.8418 50.498C75.0528 50.1996 75.0528 49.8005 74.8419 49.5022Z" fill="white"/>
<path d="M64.8504 57.6007C64.863 57.5965 64.8746 57.5915 64.8871 57.5873L51.7199 49.9966L64.8119 42.3781C64.2354 42.1634 63.8912 41.5612 64.0165 40.9544C64.0249 40.9138 64.0293 40.8746 64.0374 40.8342L50.8621 48.5012V33.308C50.8528 33.3163 50.8432 33.3232 50.8339 33.3315C50.3597 33.753 49.6403 33.753 49.1661 33.3315C49.1568 33.3232 49.1472 33.3163 49.1379 33.308V48.5082L35.978 40.9218C35.9802 40.9329 35.9814 40.9435 35.9836 40.9544C36.1119 41.5761 35.7522 42.1994 35.1497 42.3994C35.1371 42.4036 35.1255 42.4087 35.1129 42.4129L48.28 50.0036L35.1881 57.622C35.7646 57.8368 36.1088 58.4389 35.9835 59.0458C35.9751 59.0864 35.9707 59.1256 35.9626 59.1662L49.1379 51.4992V66.6923C49.1472 66.684 49.1568 66.677 49.1661 66.6687C49.6403 66.2471 50.3597 66.2471 50.8339 66.6687C50.8432 66.677 50.8528 66.684 50.8621 66.6923V51.492L64.0221 59.0786C64.0198 59.0674 64.0186 59.0568 64.0164 59.0457C63.8881 58.4242 64.2478 57.8007 64.8504 57.6007Z" fill="#BABABA"/>
<path d="M65.5173 49.1381H51.4933L58.5054 36.9928C58.7432 36.5803 58.6022 36.0533 58.1897 35.815C57.7754 35.5758 57.2497 35.7182 57.0118 36.1307L50 48.2757L42.9881 36.1307C42.7489 35.7182 42.2221 35.5759 41.8102 35.815C41.3977 36.0533 41.2567 36.5803 41.4945 36.9928L48.5066 49.1381H34.4826C34.0065 49.1381 33.6205 49.5241 33.6205 50.0002C33.6205 50.4762 34.0065 50.8623 34.4826 50.8623H48.5066L41.4945 63.0075C41.2567 63.42 41.3977 63.9471 41.8102 64.1853C41.9463 64.2637 42.0944 64.3007 42.2404 64.3007C42.5385 64.3007 42.828 64.1462 42.988 63.8696L49.9999 51.7246L57.0117 63.8695C57.1717 64.146 57.4613 64.3006 57.7594 64.3006C57.9054 64.3006 58.054 64.2635 58.1896 64.1852C58.6021 63.947 58.7431 63.4199 58.5053 63.0074L51.4933 50.8622H65.5173C65.9934 50.8622 66.3794 50.4761 66.3794 50.0001C66.3794 49.5241 65.9934 49.1381 65.5173 49.1381Z" fill="#6F6F6F"/>
<path d="M59.4829 50.0001C59.4829 50.772 57.6865 51.2977 57.4962 52.0095C57.2994 52.7461 58.5864 54.0982 58.2131 54.7431C57.8347 55.3972 56.017 54.9556 55.4861 55.4865C54.9552 56.0173 55.3967 57.835 54.7426 58.2134C54.0978 58.5865 52.7458 57.2995 52.0094 57.4963C51.2974 57.6867 50.7719 59.483 50 59.483C49.2282 59.483 48.7025 57.6866 47.9907 57.4963C47.254 57.2995 45.902 58.5865 45.2571 58.2132C44.603 57.8348 45.0446 56.0171 44.5137 55.4862C43.9828 54.9553 42.1652 55.3968 41.7867 54.7427C41.4137 54.0979 42.7007 52.7459 42.5038 52.0095C42.3135 51.2977 40.5172 50.7721 40.5172 50.0002C40.5172 49.2284 42.3136 48.7027 42.5038 47.9909C42.7007 47.2542 41.4137 45.9022 41.7869 45.2573C42.1654 44.6032 43.983 45.0448 44.514 44.5139C45.0449 43.983 44.6034 42.1654 45.2575 41.7869C45.9023 41.4139 47.2542 42.7009 47.9907 42.504C48.7027 42.3136 49.2282 40.5173 50 40.5173C50.7719 40.5173 51.2976 42.3137 52.0094 42.5039C52.746 42.7008 54.0981 41.4138 54.743 41.787C55.3971 42.1655 54.9555 43.9831 55.4864 44.5141C56.0172 45.0449 57.8349 44.6034 58.2133 45.2575C58.5864 45.9024 57.2994 47.2543 57.4962 47.9908C57.6865 48.7027 59.4829 49.2283 59.4829 50.0001Z" fill="#555555"/>
<path d="M50.4699 45.4756L52.1478 44.5828C52.8008 44.2354 53.5919 44.6922 53.6175 45.4314L53.6833 47.331C53.6948 47.6635 53.8709 47.9686 54.1531 48.1449L55.7652 49.1517C56.3925 49.5434 56.3925 50.457 55.7652 50.8487L54.1531 51.8555C53.8709 52.0318 53.6947 52.3369 53.6833 52.6694L53.6175 54.569C53.5918 55.3082 52.8008 55.7649 52.1478 55.4175L50.4699 54.5248C50.1762 54.3685 49.8239 54.3685 49.5302 54.5248L47.8522 55.4175C47.1993 55.765 46.4082 55.3082 46.3826 54.569L46.3168 52.6694C46.3053 52.3369 46.1292 52.0318 45.847 51.8555L44.2348 50.8487C43.6076 50.457 43.6076 49.5434 44.2348 49.1517L45.847 48.1449C46.1292 47.9686 46.3054 47.6635 46.3168 47.331L46.3826 45.4314C46.4083 44.6922 47.1993 44.2355 47.8522 44.5828L49.5302 45.4756C49.824 45.632 50.1762 45.632 50.4699 45.4756Z" fill="#333333"/>
<path d="M50.0001 51.7243C50.9523 51.7243 51.7243 50.9524 51.7243 50.0002C51.7243 49.0479 50.9523 48.276 50.0001 48.276C49.0479 48.276 48.276 49.0479 48.276 50.0002C48.276 50.9524 49.0479 51.7243 50.0001 51.7243Z" fill="#111111"/>
</g>
<path d="M102.848 42C102.613 42 102.411 41.9253 102.24 41.776C102.069 41.6053 101.984 41.4027 101.984 41.168V20.432C101.984 20.1973 102.069 20.0053 102.24 19.856C102.411 19.6853 102.613 19.6 102.848 19.6H107.104C107.488 19.6 107.776 19.7067 107.968 19.92C108.16 20.1333 108.288 20.2827 108.352 20.368L113.472 29.264L118.592 20.368C118.656 20.2827 118.784 20.1333 118.976 19.92C119.168 19.7067 119.456 19.6 119.84 19.6H124.096C124.331 19.6 124.523 19.6853 124.672 19.856C124.843 20.0053 124.928 20.1973 124.928 20.432V41.168C124.928 41.4027 124.843 41.6053 124.672 41.776C124.523 41.9253 124.331 42 124.096 42H119.296C119.061 42 118.859 41.9253 118.688 41.776C118.539 41.6053 118.464 41.4027 118.464 41.168V30.8L115.584 35.856C115.477 36.0267 115.339 36.1973 115.168 36.368C114.997 36.5387 114.752 36.624 114.432 36.624H112.48C112.181 36.624 111.947 36.5387 111.776 36.368C111.605 36.1973 111.467 36.0267 111.36 35.856L108.48 30.8V41.168C108.48 41.4027 108.395 41.6053 108.224 41.776C108.075 41.9253 107.883 42 107.648 42H102.848ZM129.754 42C129.54 42 129.348 41.9253 129.178 41.776C129.007 41.6053 128.922 41.4027 128.922 41.168V20.432C128.922 20.1973 129.007 20.0053 129.178 19.856C129.348 19.6853 129.54 19.6 129.754 19.6H134.842C135.076 19.6 135.268 19.6853 135.418 19.856C135.588 20.0053 135.674 20.1973 135.674 20.432V27.152L140.442 20.272C140.548 20.1227 140.698 19.9733 140.89 19.824C141.082 19.6747 141.348 19.6 141.69 19.6H147.546C147.738 19.6 147.898 19.6747 148.026 19.824C148.175 19.952 148.25 20.112 148.25 20.304C148.25 20.432 148.207 20.5493 148.122 20.656L141.402 30.32L148.698 40.944C148.783 41.0293 148.826 41.1467 148.826 41.296C148.826 41.488 148.751 41.6587 148.602 41.808C148.474 41.936 148.314 42 148.122 42H142.074C141.668 42 141.359 41.904 141.146 41.712C140.954 41.52 140.836 41.3813 140.794 41.296L135.674 33.872V41.168C135.674 41.4027 135.588 41.6053 135.418 41.776C135.268 41.9253 135.076 42 134.842 42H129.754ZM156.776 42C156.541 42 156.339 41.9253 156.168 41.776C156.019 41.6053 155.944 41.4027 155.944 41.168V25.552H150.44C150.205 25.552 150.003 25.4773 149.832 25.328C149.683 25.1573 149.608 24.9547 149.608 24.72V20.432C149.608 20.1973 149.683 20.0053 149.832 19.856C150.003 19.6853 150.205 19.6 150.44 19.6H168.424C168.659 19.6 168.851 19.6853 169 19.856C169.171 20.0053 169.256 20.1973 169.256 20.432V24.72C169.256 24.9547 169.171 25.1573 169 25.328C168.851 25.4773 168.659 25.552 168.424 25.552H162.92V41.168C162.92 41.4027 162.835 41.6053 162.664 41.776C162.515 41.9253 162.323 42 162.088 42H156.776ZM102.816 80C102.603 80 102.411 79.9253 102.24 79.776C102.069 79.6053 101.984 79.4027 101.984 79.168V58.432C101.984 58.1973 102.069 58.0053 102.24 57.856C102.411 57.6853 102.603 57.6 102.816 57.6H118.24C118.475 57.6 118.677 57.6853 118.848 57.856C119.019 58.0053 119.104 58.1973 119.104 58.432V62.496C119.104 62.7093 119.019 62.9013 118.848 63.072C118.677 63.2427 118.475 63.328 118.24 63.328H108.736V66.848H117.6C117.835 66.848 118.037 66.9333 118.208 67.104C118.379 67.2533 118.464 67.4453 118.464 67.68V71.712C118.464 71.9467 118.379 72.1493 118.208 72.32C118.037 72.4693 117.835 72.544 117.6 72.544H108.736V79.168C108.736 79.4027 108.651 79.6053 108.48 79.776C108.331 79.9253 108.139 80 107.904 80H102.816ZM123.035 80C122.821 80 122.629 79.9253 122.459 79.776C122.288 79.6053 122.203 79.4027 122.203 79.168V58.432C122.203 58.1973 122.288 58.0053 122.459 57.856C122.629 57.6853 122.821 57.6 123.035 57.6H128.475C128.709 57.6 128.901 57.6853 129.051 57.856C129.221 58.0053 129.307 58.1973 129.307 58.432V79.168C129.307 79.4027 129.221 79.6053 129.051 79.776C128.901 79.9253 128.709 80 128.475 80H123.035ZM134.097 80C133.884 80 133.692 79.9253 133.521 79.776C133.351 79.6053 133.265 79.4027 133.265 79.168V58.432C133.265 58.1973 133.351 58.0053 133.521 57.856C133.692 57.6853 133.884 57.6 134.097 57.6H139.409C139.644 57.6 139.847 57.6853 140.017 57.856C140.188 58.0053 140.273 58.1973 140.273 58.432V74.304H149.521C149.756 74.304 149.959 74.3893 150.129 74.56C150.3 74.7093 150.385 74.9013 150.385 75.136V79.168C150.385 79.4027 150.3 79.6053 150.129 79.776C149.959 79.9253 149.756 80 149.521 80H134.097ZM153.692 80C153.457 80 153.254 79.9253 153.084 79.776C152.913 79.6053 152.828 79.4027 152.828 79.168V58.432C152.828 58.1973 152.913 58.0053 153.084 57.856C153.254 57.6853 153.457 57.6 153.692 57.6H157.948C158.332 57.6 158.62 57.7067 158.812 57.92C159.004 58.1333 159.132 58.2827 159.196 58.368L164.316 67.264L169.436 58.368C169.5 58.2827 169.628 58.1333 169.82 57.92C170.012 57.7067 170.3 57.6 170.684 57.6H174.94C175.174 57.6 175.366 57.6853 175.516 57.856C175.686 58.0053 175.772 58.1973 175.772 58.432V79.168C175.772 79.4027 175.686 79.6053 175.516 79.776C175.366 79.9253 175.174 80 174.94 80H170.14C169.905 80 169.702 79.9253 169.532 79.776C169.382 79.6053 169.308 79.4027 169.308 79.168V68.8L166.428 73.856C166.321 74.0267 166.182 74.1973 166.012 74.368C165.841 74.5387 165.596 74.624 165.276 74.624H163.324C163.025 74.624 162.79 74.5387 162.62 74.368C162.449 74.1973 162.31 74.0267 162.204 73.856L159.324 68.8V79.168C159.324 79.4027 159.238 79.6053 159.068 79.776C158.918 79.9253 158.726 80 158.492 80H153.692ZM186.972 80C186.759 80 186.567 79.9253 186.396 79.776C186.226 79.6053 186.14 79.4027 186.14 79.168V58.432C186.14 58.1973 186.226 58.0053 186.396 57.856C186.567 57.6853 186.759 57.6 186.972 57.6H202.396C202.631 57.6 202.834 57.6853 203.004 57.856C203.175 58.0053 203.26 58.1973 203.26 58.432V62.496C203.26 62.7093 203.175 62.9013 203.004 63.072C202.834 63.2427 202.631 63.328 202.396 63.328H192.892V66.848H201.756C201.991 66.848 202.194 66.9333 202.364 67.104C202.535 67.2533 202.62 67.4453 202.62 67.68V71.712C202.62 71.9467 202.535 72.1493 202.364 72.32C202.194 72.4693 201.991 72.544 201.756 72.544H192.892V79.168C192.892 79.4027 192.807 79.6053 192.636 79.776C192.487 79.9253 192.295 80 192.06 80H186.972ZM207.191 80C206.978 80 206.786 79.9253 206.615 79.776C206.444 79.6053 206.359 79.4027 206.359 79.168V58.432C206.359 58.1973 206.444 58.0053 206.615 57.856C206.786 57.6853 206.978 57.6 207.191 57.6H222.871C223.106 57.6 223.308 57.6853 223.479 57.856C223.65 58.0053 223.735 58.1973 223.735 58.432V62.208C223.735 62.4213 223.65 62.6133 223.479 62.784C223.308 62.9547 223.106 63.04 222.871 63.04H212.983V66.208H222.167C222.402 66.208 222.604 66.2933 222.775 66.464C222.946 66.6133 223.031 66.8053 223.031 67.04V70.496C223.031 70.7307 222.946 70.9333 222.775 71.104C222.604 71.2533 222.402 71.328 222.167 71.328H212.983V74.56H223.127C223.362 74.56 223.564 74.6453 223.735 74.816C223.906 74.9867 223.991 75.1893 223.991 75.424V79.168C223.991 79.4027 223.906 79.6053 223.735 79.776C223.564 79.9253 223.362 80 223.127 80H207.191ZM236.129 80.32C233.889 80.32 232.023 80.0107 230.529 79.392C229.057 78.752 227.948 77.9307 227.201 76.928C226.476 75.904 226.092 74.8267 226.049 73.696C226.049 73.504 226.113 73.344 226.241 73.216C226.369 73.088 226.529 73.024 226.721 73.024H231.809C232.108 73.024 232.343 73.0773 232.513 73.184C232.684 73.2693 232.865 73.3973 233.057 73.568C233.249 73.8027 233.473 74.0267 233.729 74.24C233.985 74.432 234.316 74.592 234.721 74.72C235.127 74.8267 235.596 74.88 236.129 74.88C237.111 74.88 237.868 74.752 238.401 74.496C238.935 74.2187 239.201 73.8453 239.201 73.376C239.201 73.0133 239.052 72.7147 238.753 72.48C238.476 72.2453 237.996 72.032 237.313 71.84C236.631 71.648 235.703 71.4453 234.529 71.232C232.887 70.9547 231.468 70.5493 230.273 70.016C229.079 69.4613 228.161 68.7253 227.521 67.808C226.903 66.8693 226.593 65.7173 226.593 64.352C226.593 62.9653 226.977 61.7387 227.745 60.672C228.535 59.6053 229.623 58.7733 231.009 58.176C232.417 57.5787 234.049 57.28 235.905 57.28C237.441 57.28 238.796 57.4827 239.969 57.888C241.164 58.2933 242.167 58.8267 242.977 59.488C243.788 60.128 244.407 60.8213 244.833 61.568C245.26 62.3147 245.484 63.0293 245.505 63.712C245.505 63.904 245.431 64.0747 245.281 64.224C245.153 64.352 245.004 64.416 244.833 64.416H239.489C239.233 64.416 239.009 64.3733 238.817 64.288C238.647 64.2027 238.487 64.064 238.337 63.872C238.231 63.5733 237.964 63.3067 237.537 63.072C237.111 62.8373 236.567 62.72 235.905 62.72C235.18 62.72 234.625 62.848 234.241 63.104C233.857 63.3387 233.665 63.6907 233.665 64.16C233.665 64.48 233.783 64.7573 234.017 64.992C234.252 65.2267 234.668 65.44 235.265 65.632C235.863 65.8027 236.695 65.9947 237.761 66.208C239.788 66.5067 241.42 66.9333 242.657 67.488C243.916 68.0427 244.833 68.768 245.409 69.664C245.985 70.56 246.273 71.68 246.273 73.024C246.273 74.5387 245.836 75.84 244.961 76.928C244.087 78.016 242.881 78.8587 241.345 79.456C239.831 80.032 238.092 80.32 236.129 80.32ZM254.589 80C254.354 80 254.151 79.9253 253.981 79.776C253.831 79.6053 253.757 79.4027 253.757 79.168V63.552H248.253C248.018 63.552 247.815 63.4773 247.645 63.328C247.495 63.1573 247.421 62.9547 247.421 62.72V58.432C247.421 58.1973 247.495 58.0053 247.645 57.856C247.815 57.6853 248.018 57.6 248.253 57.6H266.237C266.471 57.6 266.663 57.6853 266.812 57.856C266.983 58.0053 267.069 58.1973 267.069 58.432V62.72C267.069 62.9547 266.983 63.1573 266.812 63.328C266.663 63.4773 266.471 63.552 266.237 63.552H260.733V79.168C260.733 79.4027 260.647 79.6053 260.477 79.776C260.327 79.9253 260.135 80 259.901 80H254.589ZM270.504 80C270.29 80 270.098 79.9253 269.928 79.776C269.757 79.6053 269.672 79.4027 269.672 79.168V58.432C269.672 58.1973 269.757 58.0053 269.928 57.856C270.098 57.6853 270.29 57.6 270.504 57.6H275.944C276.178 57.6 276.37 57.6853 276.52 57.856C276.69 58.0053 276.776 58.1973 276.776 58.432V79.168C276.776 79.4027 276.69 79.6053 276.52 79.776C276.37 79.9253 276.178 80 275.944 80H270.504ZM287.038 80C286.654 80 286.345 79.8933 286.11 79.68C285.897 79.4667 285.758 79.2427 285.694 79.008L279.39 58.528C279.369 58.4427 279.358 58.368 279.358 58.304C279.358 58.112 279.422 57.952 279.55 57.824C279.699 57.6747 279.87 57.6 280.062 57.6H285.022C285.406 57.6 285.705 57.7067 285.918 57.92C286.131 58.1333 286.27 58.3467 286.334 58.56L290.11 71.904L293.886 58.56C293.95 58.3467 294.089 58.1333 294.302 57.92C294.515 57.7067 294.814 57.6 295.198 57.6H300.158C300.35 57.6 300.51 57.6747 300.638 57.824C300.766 57.952 300.83 58.112 300.83 58.304C300.83 58.368 300.819 58.4427 300.798 58.528L294.526 79.008C294.462 79.2427 294.313 79.4667 294.078 79.68C293.865 79.8933 293.555 80 293.15 80H287.038ZM300.457 80C300.265 80 300.094 79.936 299.945 79.808C299.817 79.6587 299.753 79.488 299.753 79.296C299.753 79.2107 299.774 79.136 299.817 79.072L307.113 58.592C307.177 58.3573 307.316 58.1333 307.529 57.92C307.764 57.7067 308.073 57.6 308.457 57.6H314.313C314.718 57.6 315.028 57.7067 315.241 57.92C315.454 58.1333 315.593 58.3573 315.657 58.592L322.985 79.072C323.006 79.136 323.017 79.2107 323.017 79.296C323.017 79.488 322.942 79.6587 322.793 79.808C322.665 79.936 322.505 80 322.313 80H317.385C317.022 80 316.756 79.9147 316.585 79.744C316.414 79.5733 316.297 79.4133 316.233 79.264L315.241 76.576H307.529L306.537 79.264C306.473 79.4133 306.356 79.5733 306.185 79.744C306.036 79.9147 305.769 80 305.385 80H300.457ZM309.001 71.168H313.769L311.369 63.968L309.001 71.168ZM325.972 80C325.759 80 325.567 79.9253 325.396 79.776C325.226 79.6053 325.14 79.4027 325.14 79.168V58.432C325.14 58.1973 325.226 58.0053 325.396 57.856C325.567 57.6853 325.759 57.6 325.972 57.6H331.284C331.519 57.6 331.722 57.6853 331.892 57.856C332.063 58.0053 332.148 58.1973 332.148 58.432V74.304H341.396C341.631 74.304 341.834 74.3893 342.004 74.56C342.175 74.7093 342.26 74.9013 342.26 75.136V79.168C342.26 79.4027 342.175 79.6053 342.004 79.776C341.834 79.9253 341.631 80 341.396 80H325.972Z" fill="white"/>
<defs>
<clipPath id="clip0_20_24">
<rect width="50" height="50" fill="white" transform="translate(25 25)"/>
</clipPath>
</defs>
</svg>
