<svg width="213" height="52" viewBox="0 0 426 104" fill="none" xmlns="http://www.w3.org/2000/svg">
<g clip-path="url(#clip0_40_76)">
<mask id="mask0_40_76" style="mask-type:luminance" maskUnits="userSpaceOnUse" x="53" y="9" width="79" height="95">
<path d="M53 9.66663H131.031V103.557H53V9.66663Z" fill="white"/>
</mask>
<g mask="url(#mask0_40_76)">
<path fill-rule="evenodd" clip-rule="evenodd" d="M131.031 10.4739V67.6145C131.031 87.3697 111.031 103.531 86.5885 103.531C73.6615 103.531 61.9792 99.0103 53.8438 91.8333C61.4219 90.5051 68.2969 87.5989 73.9167 83.5728C73.8073 84.2447 73.75 84.9322 73.75 85.6353C73.75 86.1093 99.4271 86.1093 99.4271 85.6353C99.4271 78.5624 93.6771 72.8333 86.5885 72.8333C85.7031 72.8333 84.8385 72.9218 84.0052 73.0885C87.1406 68.177 88.9167 62.6093 88.9167 56.7239V21.0208C104.417 20.6718 118.833 16.8437 131.031 10.4739ZM108.479 37.6353C115.568 37.6353 121.318 43.3697 121.318 50.4374C121.318 50.9114 121.292 51.3801 121.24 51.8385C117.609 50.4218 113.219 49.5937 108.479 49.5937C103.74 49.5937 99.3438 50.4218 95.7188 51.8385C95.6667 51.3801 95.6406 50.9114 95.6406 50.4374C95.6406 43.3697 101.385 37.6353 108.479 37.6353Z" fill="#F2583E"/>
</g>
<mask id="mask1_40_76" style="mask-type:luminance" maskUnits="userSpaceOnUse" x="0" y="-1" width="89" height="95">
<path d="M0.03125 -0.442749H89V93.6666H0.03125V-0.442749Z" fill="white"/>
</mask>
<g mask="url(#mask1_40_76)">
<path fill-rule="evenodd" clip-rule="evenodd" d="M88.9167 -0.416748V56.7239C88.9167 76.4791 68.9167 92.6458 44.474 92.6458C20.0313 92.6458 0.03125 76.4791 0.03125 56.7239V-0.416748C12.8385 6.27596 28.0937 10.1562 44.474 10.1562C60.8542 10.1562 76.1146 6.27596 88.9167 -0.416748ZM44.474 75.0989C51.5677 75.0989 57.3125 69.3697 57.3125 62.2968C57.3125 61.8228 31.6354 61.8228 31.6354 62.2968C31.6354 69.3697 37.3854 75.0989 44.474 75.0989ZM22.5833 26.7447C29.6719 26.7447 35.4219 32.4791 35.4219 39.5468C35.4219 40.0208 35.3958 40.4895 35.3438 40.9478C31.7135 39.5312 27.3177 38.703 22.5833 38.703C17.8437 38.703 13.4479 39.5312 9.82292 40.9478C9.77083 40.4895 9.74479 40.0208 9.74479 39.5468C9.74479 32.4791 15.4896 26.7447 22.5833 26.7447ZM66.3646 26.7447C73.4583 26.7447 79.2083 32.4791 79.2083 39.5468C79.2083 40.0208 79.1771 40.4895 79.1302 40.9478C75.5 39.5312 71.1042 38.703 66.3646 38.703C61.6302 38.703 57.2344 39.5312 53.6042 40.9478C53.5521 40.4895 53.526 40.0208 53.526 39.5468C53.526 32.4791 59.276 26.7447 66.3646 26.7447Z" fill="#FFCC00"/>
</g>
<path d="M172.446 47.0596C173.248 47.0596 173.701 46.6586 173.852 45.9086C174.857 40.3877 175.862 36.1221 176.664 32.3565C177.466 28.4919 178.321 25.5804 178.623 24.3252L178.67 24.8252C178.774 26.2315 178.873 27.6377 178.873 29.1429C178.873 36.169 177.867 42.6429 177.315 45.5075C177.117 46.5596 177.617 46.9606 178.571 46.8096C179.524 46.6586 180.628 46.5596 182.284 46.5596C184.446 46.5596 184.742 46.6586 186.201 46.8617C187.102 47.0127 187.654 46.5075 187.456 45.4554C186.951 42.695 185.951 36.2211 185.951 29.1429C185.951 22.0648 186.951 15.5908 187.456 12.8304C187.654 11.7783 187.102 11.2731 186.201 11.4242C184.742 11.6273 184.446 11.7263 182.284 11.7263C180.128 11.7263 178.42 11.5752 176.966 11.4242C176.263 11.3252 175.711 11.6742 175.607 12.4815C175.107 16.8461 173.149 24.3773 171.295 33.0075C169.435 23.8721 167.529 16.5961 167.029 12.4815C166.925 11.6742 166.477 11.2731 165.67 11.3773C164.013 11.5752 162.055 11.7263 160.102 11.7263C158.394 11.7263 157.341 11.6273 156.336 11.4763C155.43 11.3252 154.982 11.8252 155.133 12.7783C155.633 15.6429 156.638 22.1169 156.638 29.1429C156.638 36.2211 155.633 42.6429 155.133 45.4554C154.93 46.5075 155.43 46.9606 156.336 46.8096C157.341 46.6586 158.394 46.5596 160.102 46.5596C162.159 46.5596 162.758 46.6586 164.013 46.8617C165.019 47.0127 165.42 46.4086 165.269 45.5075C164.716 42.695 163.711 36.169 163.711 29.1429C163.711 27.5856 163.815 26.1325 163.966 24.6742V24.5231C164.67 26.5856 165.367 29.044 166.071 32.3565C166.774 35.4658 167.982 41.3408 168.732 45.8565C168.883 46.6586 169.284 47.0596 170.138 47.0596H172.446Z" fill="#222"/>
<path d="M198.093 46.8617C198.999 46.9607 199.452 46.5075 199.301 45.5544C198.9 43.0492 198.093 37.6273 197.843 31.7523C201.556 31.8044 204.218 34.3617 204.218 38.2263C204.218 42.5961 203.764 43.7471 203.415 45.5544C203.212 46.5075 203.718 46.9607 204.619 46.8617C205.473 46.7107 206.275 46.6117 207.931 46.6117C209.692 46.6117 210.994 46.7107 212.249 46.8617C213.254 46.9607 213.655 46.4607 213.353 45.4555C212.801 43.7471 211.848 40.7888 211.546 37.9294C211.145 34.6638 209.139 30.9503 206.478 29.0909C208.686 27.5388 210.29 24.9763 210.645 21.4659C210.994 18.5544 211.395 15.6898 212.051 12.7784C212.301 11.8253 211.848 11.3253 210.895 11.4763C209.79 11.6273 208.738 11.7263 206.978 11.7263C205.374 11.7263 204.27 11.6273 203.317 11.4763C202.363 11.3253 201.91 11.8253 202.16 12.8305C202.712 14.6898 203.468 18.1534 203.468 21.2107C203.468 25.3773 201.457 26.9346 197.744 26.8825C197.843 20.5128 198.749 15.2419 199.197 12.7784C199.4 11.8253 198.947 11.3253 198.046 11.4242C196.889 11.6273 195.884 11.7263 194.082 11.7263C192.426 11.7263 191.317 11.6273 190.363 11.4763C189.41 11.3253 188.962 11.8253 189.108 12.7784C189.613 15.643 190.665 22.1169 190.665 29.143C190.665 38.7315 189.764 40.9867 188.962 45.5544C188.811 46.5075 189.363 46.9607 190.317 46.8096C191.27 46.6586 192.374 46.5596 194.082 46.5596C195.884 46.5596 196.942 46.6586 198.093 46.8617Z" fill="#222"/>
<path d="M222.942 46.8097C223.791 46.6586 224.697 46.5597 226.254 46.5597C227.858 46.5597 228.812 46.6586 229.817 46.8097C230.77 46.9607 231.223 46.5076 231.072 45.5545C230.671 42.6951 229.817 36.2211 229.817 29.143C229.817 24.7784 230.119 20.8618 230.468 17.8514C232.124 17.7003 234.233 18.1534 236.744 19.1534C237.645 19.5076 238.249 19.1066 238.197 18.1534C238.046 16.0909 238.098 14.4347 238.197 12.6795C238.301 11.7784 237.749 11.3253 236.895 11.4243C234.884 11.6743 233.681 11.6743 231.322 11.6743H221.437C219.124 11.6743 217.869 11.6743 215.864 11.4243C215.009 11.3253 214.457 11.7784 214.556 12.7316C214.707 14.5389 214.661 15.6899 214.509 18.1014C214.457 19.1066 215.062 19.5076 215.963 19.1534C218.572 18.1014 220.733 17.7003 222.39 17.8514C222.739 20.8618 223.041 24.7784 222.89 29.143C222.687 36.2211 221.937 42.6951 221.634 45.5545C221.483 46.5076 221.989 46.9607 222.942 46.8097Z" fill="#222"/>
<path d="M165.915 96.2108C166.816 96.3097 167.316 95.8097 167.113 94.8566C166.712 92.5076 165.962 87.7003 165.712 82.0962C167.415 82.0962 169.665 82.7004 171.165 83.2993C172.066 83.7004 172.467 83.4972 172.368 82.4972C172.316 81.5493 172.316 80.5962 172.316 79.5962C172.316 78.5962 172.368 77.6431 172.421 76.6431C172.52 75.6899 172.118 75.5441 171.27 75.8931C169.816 76.5441 167.566 77.1431 165.665 77.1431C165.764 73.492 166.363 67.6847 166.363 67.6847C168.467 67.5337 171.816 67.1847 175.072 69.0389C176.02 69.6378 176.572 69.3358 176.525 68.2837C176.421 65.9347 176.421 63.8826 176.572 62.1326C176.624 61.1795 176.223 60.7785 175.27 60.8774C173.868 61.0806 171.165 61.2785 166.613 61.2785C163.561 61.2785 160.561 61.1274 158.207 60.8774C157.254 60.7785 156.806 61.2316 157.004 62.1795C157.504 65.0337 158.556 71.5389 158.556 78.5441C158.556 85.5493 157.504 92.0076 157.004 94.8566C156.806 95.8097 157.306 96.3097 158.259 96.1587C159.207 96.0076 160.259 95.9087 161.962 95.9087C163.759 95.9087 164.811 96.0076 165.915 96.2108Z" fill="#AF1C10"/>
<path d="M186.529 96.2107C187.482 96.3097 187.93 95.8617 187.784 94.9086C187.331 92.0544 186.43 85.6013 186.43 78.544C186.43 71.4867 187.331 65.0336 187.784 62.1794C187.93 61.2315 187.482 60.7784 186.529 60.8774C185.43 61.0805 184.477 61.1794 182.826 61.1794C181.274 61.1794 180.274 61.0805 179.326 60.9294C178.373 60.7784 177.925 61.2784 178.076 62.2315C178.524 65.0336 179.425 71.5388 179.425 78.544C179.425 85.5492 178.524 92.0544 178.076 94.8565C177.925 95.8617 178.373 96.3097 179.326 96.1586C180.274 96.0076 181.274 95.9086 182.826 95.9086C184.477 95.9086 185.43 96.0076 186.529 96.2107Z" fill="#AF1C10"/>
<path d="M190.836 96.2107C193.138 95.9607 196.336 95.8097 199.289 95.8097C202.592 95.8097 205.399 95.9086 207.951 96.2107C208.899 96.3097 209.3 95.9086 209.248 94.9607C209.05 92.5076 209.102 89.5545 209.248 86.7992C209.3 85.8513 208.498 85.5024 207.649 86.1013C204.045 88.8513 200.394 88.4034 198.941 88.3045C198.691 86.5492 198.191 83.3513 198.191 78.544C198.191 71.6378 198.842 66.7367 199.691 62.1794C199.842 61.2784 199.394 60.7784 198.493 60.8774C197.388 61.0805 196.336 61.1794 194.539 61.1794C192.836 61.1794 191.784 61.0805 190.836 60.9294C189.883 60.7784 189.435 61.2784 189.581 62.2315C190.081 65.0857 191.133 71.5388 191.133 78.544C191.133 85.7003 190.331 91.0545 189.581 94.9086C189.435 95.8617 189.831 96.3097 190.836 96.2107Z" fill="#AF1C10"/>
<path d="M228.066 96.4086C228.868 96.4086 229.316 96.0076 229.467 95.2576C230.467 89.7524 231.467 85.5024 232.269 81.7472C233.071 77.893 233.92 74.9919 234.222 73.7419L234.269 74.2419C234.373 75.643 234.472 77.044 234.472 78.544C234.472 85.5492 233.472 92.0076 232.92 94.8565C232.722 95.9086 233.222 96.3097 234.17 96.1586C235.123 96.0076 236.222 95.9086 237.873 95.9086C240.024 95.9086 240.326 96.0076 241.779 96.2107C242.68 96.3617 243.227 95.8617 243.029 94.8097C242.529 92.0544 241.529 85.6013 241.529 78.544C241.529 71.4867 242.529 65.0336 243.029 62.2784C243.227 61.2315 242.68 60.7315 241.779 60.8774C240.326 61.0805 240.024 61.1794 237.873 61.1794C235.722 61.1794 234.019 61.0284 232.571 60.8774C231.868 60.7784 231.316 61.1274 231.217 61.9294C230.717 66.2836 228.763 73.7888 226.914 82.3982C225.06 73.2888 223.159 66.0336 222.659 61.9294C222.56 61.1274 222.112 60.7315 221.31 60.8305C219.659 61.0284 217.706 61.1794 215.753 61.1794C214.055 61.1794 213.003 61.0805 212.003 60.9294C211.102 60.7784 210.649 61.2784 210.8 62.2315C211.3 65.0857 212.3 71.5388 212.3 78.544C212.3 85.6013 211.3 92.0076 210.8 94.8097C210.602 95.8617 211.102 96.3097 212.003 96.1586C213.003 96.0076 214.055 95.9086 215.753 95.9086C217.805 95.9086 218.409 96.0076 219.659 96.2107C220.659 96.3617 221.06 95.7576 220.909 94.8565C220.357 92.0544 219.357 85.5492 219.357 78.544C219.357 76.9919 219.456 75.544 219.607 74.0909V73.9399C220.31 75.9919 221.008 78.4451 221.711 81.7472C222.409 84.8513 223.612 90.7055 224.362 95.2107C224.513 96.0076 224.914 96.4086 225.763 96.4086H228.066Z" fill="#AF1C10"/>
<path d="M263.797 96.2108C264.698 96.3097 265.198 95.8097 264.994 94.8566C264.593 92.5076 263.843 87.7003 263.593 82.0962C265.297 82.0962 267.547 82.7004 269.047 83.2993C269.948 83.7004 270.349 83.4972 270.25 82.4972C270.198 81.5493 270.198 80.5962 270.198 79.5962C270.198 78.5962 270.25 77.6431 270.302 76.6431C270.401 75.6899 270 75.5441 269.151 75.8931C267.698 76.5441 265.448 77.1431 263.547 77.1431C263.646 73.492 264.244 67.6847 264.244 67.6847C266.349 67.5337 269.698 67.1847 272.953 69.0389C273.901 69.6378 274.453 69.3358 274.406 68.2837C274.302 65.9347 274.302 63.8826 274.453 62.1326C274.505 61.1795 274.104 60.7785 273.151 60.8774C271.75 61.0806 269.047 61.2785 264.494 61.2785C261.442 61.2785 258.442 61.1274 256.088 60.8774C255.135 60.7785 254.687 61.2316 254.885 62.1795C255.385 65.0337 256.437 71.5389 256.437 78.5441C256.437 85.5493 255.385 92.0076 254.885 94.8566C254.687 95.8097 255.187 96.3097 256.14 96.1587C257.088 96.0076 258.14 95.9087 259.843 95.9087C261.64 95.9087 262.692 96.0076 263.797 96.2108Z" fill="#AF1C10"/>
<path d="M277.056 96.2107C279.358 95.9607 282.561 95.8097 285.712 95.8097C288.717 95.8097 291.967 95.8618 294.769 96.2107C295.67 96.3097 296.124 95.8618 296.019 94.9607C295.769 92.8566 295.723 89.9034 295.874 87.5024C295.92 86.5024 295.572 86.3514 294.723 86.9034C291.165 89.6066 287.014 89.5024 285.212 89.4034C285.212 89.3566 284.712 84.2472 284.462 80.5961C286.264 80.5961 288.514 81.1482 290.014 81.7472C290.915 82.1482 291.316 81.9451 291.217 80.9451C291.165 80.0441 291.165 79.0441 291.165 78.0961C291.165 77.0441 291.217 76.0909 291.269 75.143C291.368 74.143 290.967 73.992 290.118 74.3409C288.665 75.0441 286.462 75.643 284.514 75.643C284.764 72.0388 285.212 67.6847 285.212 67.6847C286.962 67.5857 290.618 67.2836 294.019 69.7368C294.973 70.3357 295.519 70.0857 295.519 68.9868C295.374 66.1326 295.374 64.4347 295.519 62.1795C295.624 61.2316 295.223 60.6795 294.322 60.8305C290.165 61.5284 282.259 61.4816 277.056 60.8774C276.103 60.7784 275.655 61.2316 275.853 62.1795C276.353 65.0336 277.405 71.5388 277.405 78.5441C277.405 85.6014 276.353 92.0545 275.853 94.9086C275.655 95.8618 276.103 96.3097 277.056 96.2107Z" fill="#AF1C10"/>
<path d="M305.88 96.8097C313.385 96.8097 316.938 92.8045 316.938 86.6014C316.938 81.7993 313.734 78.7941 310.432 76.1951C307.979 74.1899 304.526 72.2889 304.526 69.9868C304.526 67.6378 306.432 67.0857 307.979 67.0857C309.38 67.0857 311.537 67.6847 313.885 70.5389C314.635 71.4399 315.24 71.2889 315.24 70.1378C315.24 67.1326 315.287 64.1847 315.49 62.0805C315.537 61.1795 315.135 60.7784 314.287 60.8305C312.037 60.9295 310.682 60.2784 307.63 60.2784C301.724 60.2784 297.474 63.8826 297.474 69.9868C297.474 74.1899 298.672 76.893 302.276 80.1951C304.927 82.5962 309.333 85.2003 309.333 87.3045C309.333 89.1014 307.729 89.8566 305.979 89.8566C303.88 89.8566 301.578 88.5545 299.625 86.2993C298.875 85.4503 298.375 85.6014 298.422 86.7524C298.474 89.4034 298.224 92.5076 298.021 95.0597C297.922 95.9607 298.422 96.4087 299.276 96.4087C301.474 96.4087 302.828 96.8097 305.88 96.8097Z" fill="#AF1C10"/>
<path d="M326.494 96.1586C327.348 96.0076 328.249 95.9086 329.802 95.9086C331.401 95.9086 332.354 96.0076 333.354 96.1586C334.302 96.3097 334.755 95.8618 334.604 94.9086C334.203 92.0545 333.354 85.6014 333.354 78.5441C333.354 74.1899 333.651 70.2889 334.005 67.2836C335.656 67.1326 337.755 67.5857 340.26 68.5857C341.161 68.9347 341.76 68.5336 341.708 67.5857C341.562 65.5336 341.609 63.8826 341.708 62.1326C341.812 61.2316 341.26 60.7784 340.411 60.8774C338.406 61.1274 337.208 61.1274 334.854 61.1274H324.994C322.692 61.1274 321.442 61.1274 319.442 60.8774C318.588 60.7784 318.041 61.2316 318.14 62.1795C318.291 63.9816 318.239 65.1326 318.088 67.5336C318.041 68.5336 318.64 68.9347 319.541 68.5857C322.145 67.5336 324.296 67.1326 325.947 67.2836C326.296 70.2889 326.598 74.1899 326.447 78.5441C326.244 85.6014 325.494 92.0545 325.197 94.9086C325.046 95.8618 325.546 96.3097 326.494 96.1586Z" fill="#AF1C10"/>
<path d="M351.766 96.2107C352.719 96.3097 353.167 95.8617 353.021 94.9086C352.568 92.0544 351.667 85.6013 351.667 78.544C351.667 71.4867 352.568 65.0336 353.021 62.1794C353.167 61.2315 352.719 60.7784 351.766 60.8774C350.667 61.0805 349.714 61.1794 348.063 61.1794C346.511 61.1794 345.511 61.0805 344.563 60.9294C343.61 60.7784 343.162 61.2784 343.313 62.2315C343.761 65.0336 344.662 71.5388 344.662 78.544C344.662 85.5492 343.761 92.0544 343.313 94.8565C343.162 95.8617 343.61 96.3097 344.563 96.1586C345.511 96.0076 346.511 95.9086 348.063 95.9086C349.714 95.9086 350.667 96.0076 351.766 96.2107Z" fill="#AF1C10"/>
<path d="M361.178 96.2577C365.027 95.8618 368.73 95.8098 372.787 96.2577C373.636 96.3618 374.136 95.9087 374.136 95.0598C374.235 89.6535 374.839 84.3514 375.636 78.9973C376.688 71.9868 378.641 65.2837 379.542 62.2785C379.792 61.3306 379.339 60.7785 378.339 60.9296C377.391 61.0806 376.386 61.1796 374.735 61.1796C372.886 61.1796 371.834 61.0285 370.636 60.8775C369.782 60.7316 369.282 61.1796 369.334 62.0806C369.381 64.8827 369.433 71.341 368.73 77.6431C368.183 82.0493 367.579 84.7004 366.98 88.5025C366.381 84.7004 365.782 82.0493 365.23 77.6431C364.527 71.341 364.579 64.8827 364.631 62.1327C364.678 61.1796 364.178 60.7316 363.329 60.8775C362.126 61.0285 361.073 61.1796 359.225 61.1796C357.573 61.1796 356.573 61.0806 355.62 60.9296C354.62 60.7785 354.167 61.3306 354.469 62.2785C355.37 65.2837 357.271 71.9868 358.323 78.9973C359.126 84.3514 359.725 89.7056 359.823 95.0598C359.823 95.9087 360.277 96.3618 361.178 96.2577Z" fill="#AF1C10"/>
<path d="M396.454 96.1117C399.007 95.5597 401.46 95.5597 404.012 96.0076C405.111 96.2107 405.564 95.7107 405.262 94.7107C404.361 91.7055 402.46 85.0492 401.408 78.0961C400.611 72.7419 400.007 67.4347 399.908 62.0805C399.908 61.1794 399.408 60.7784 398.454 60.9294C394.606 61.4815 390.798 61.5284 386.996 60.9294C386.095 60.7784 385.595 61.1794 385.595 62.0805C385.496 67.4347 384.897 72.7419 384.095 78.0961C383.043 85.1013 381.142 91.8044 380.241 94.7576C379.939 95.7576 380.392 96.2107 381.392 96.0076C383.892 95.5597 386.444 95.5597 389.048 96.0597C389.897 96.2576 390.402 95.8617 390.402 94.9086C390.402 93.6065 390.35 91.5076 390.402 89.0024H395.106C395.152 91.5076 395.106 93.6586 395.106 94.9607C395.053 95.8617 395.553 96.2576 396.454 96.1117ZM390.652 83.4503C390.751 82.2992 390.85 80.6482 391.001 79.4451C391.449 75.7419 392.152 71.1899 392.751 67.3878C393.303 70.9867 393.954 74.8409 394.501 79.4451C394.652 80.7992 394.751 82.1482 394.856 83.4503H390.652Z" fill="#AF1C10"/>
<path d="M407.616 96.2107C409.918 95.9607 413.116 95.8097 416.069 95.8097C419.371 95.8097 422.179 95.9086 424.731 96.2107C425.679 96.3097 426.08 95.9086 426.028 94.9607C425.83 92.5076 425.882 89.5545 426.028 86.7992C426.08 85.8513 425.278 85.5024 424.429 86.1013C420.825 88.8513 417.174 88.4034 415.72 88.3045C415.47 86.5492 414.97 83.3513 414.97 78.544C414.97 71.6378 415.621 66.7367 416.47 62.1794C416.621 61.2784 416.174 60.7784 415.273 60.8774C414.168 61.0805 413.116 61.1794 411.319 61.1794C409.616 61.1794 408.564 61.0805 407.616 60.9294C406.663 60.7784 406.215 61.2784 406.361 62.2315C406.861 65.0857 407.913 71.5388 407.913 78.544C407.913 85.7003 407.111 91.0545 406.361 94.9086C406.215 95.8617 406.611 96.3097 407.616 96.2107Z" fill="#AF1C10"/>
</g>
<defs>
<clipPath id="clip0_40_76">
<rect width="426" height="104" fill="white"/>
</clipPath>
</defs>
</svg>
